<ttFont>
          <CharString index="0">
            -104 callgsubr
            90 5 -102 callsubr
            -67 callsubr
            vhcurveto
            return
          </CharString>
          <CharString index="1">
            -1 callgsubr
            126 -57 65 -113 -151 -64 -96 -215 -158 64 -45 106 151 64 101 222 vhcurveto
            -90 -71 -103 callsubr
            return
          </CharString>
          <CharString index="2">
            rmoveto
            -99 callgsubr
            -115 hmoveto
            -99 callgsubr
            return
          </CharString>
          <CharString index="3">
            -66 callgsubr
            208 -20 -105 callgsubr
            return
          </CharString>
          <CharString index="4">
            -72 callsubr
            -63 -27 37 90 17 1 18 2 20 hvcurveto
            142 12 28 50 80 hhcurveto
            65 24 -33 -90 -20 -1 -23 -2 -26 hvcurveto
            return
          </CharString>
          <CharString index="5">
            rmoveto
            3 37 2 34 32 vvcurveto
            165 -48 81 -136 -71 callgsubr
            vhcurveto
            -1 -14 -4 -71 -12 vvcurveto
            -179 44 -89 138 return
          </CharString>
          <CharString index="6">
            -73 callgsubr
            170 -634 rmoveto
            -107 -23 callgsubr
            -115 hlineto
            -228 -700 -87 callgsubr
            return
          </CharString>
          <CharString index="7">
            -3 callgsubr
            235 -20 -102 callgsubr
            return
          </CharString>
          <CharString index="8">
            -39 callsubr
            208 -20 hstem
            -106 callsubr
            return
          </CharString>
          <CharString index="9">
            -64 callgsubr
            -241 hlineto
            22 252 -69 callgsubr
            20 229 rlineto
            241 hlineto
            -70 callsubr
            return
          </CharString>
          <CharString index="10">
            rlineto
            -65 -43 callgsubr
            65 hlineto
            -42 -475 -86 callgsubr
            27 -2 32 hhcurveto
            95 35 57 75 6 hvcurveto
            41 470 rlineto
            return
          </CharString>
          <CharString index="11">
            -47 callsubr
            -20 -1 -20 -18 vvcurveto
            -113 35 -64 93 69 42 29 40 27 vhcurveto
            return
          </CharString>
          <CharString index="12">
            hstem
            461 -23 callsubr
            -89 hlineto
            -133 -413 -81 413 rlineto
            -90 hlineto
            112 -27 callsubr
            20 hlineto
            -21 -55 rlineto
            -29 -11 -13 -16 -20 hhcurveto
            -20 -18 2 2 -14 hvcurveto
            -6 -73 rlineto
            -2 12 23 -4 21 hhcurveto
            81 27 53 78 28 hvcurveto
            return
          </CharString>
          <CharString index="13">
            -151 -175 72 530 73 135 72 hstem
            323 427 rmoveto
            -64 callgsubr
            -121 hlineto
            8 85 rlineto
            29 3 20 21 36 hhcurveto
            36 24 -6 -5 20 hvcurveto
            6 72 rlineto
            4 -19 -31 7 -43 hhcurveto
            -84 -46 -43 -86 -8 hvcurveto
            -7 -78 -97 callsubr
            endchar
          </CharString>
          <CharString index="14">
            -107 -10 -21 -45 -51 hhcurveto
            -41 -16 28 66 150 29 60 55 41 17 -29 -68 -16 -1 -19 -2 -20 hvcurveto
            return
          </CharString>
          <CharString index="15">
            34 -32 callgsubr
            -44 -61 callgsubr
            hstemhm
            hintmask 11010000
            162 132 rmoveto
            4 2 24 1 12 vhcurveto
            28 328 -82 callgsubr
            -58 -670 -4 callgsubr
            15 171 rlineto
            -4 15 19 -4 23 hhcurveto
            58 37 23 37 27 hvcurveto
            hintmask 10110000
            -89 callgsubr
            hintmask 11010000
            -61 -5 -25 -85 -78 hhcurveto
            -54 -11 28 39 hvcurveto
            endchar
          </CharString>
          <CharString index="16">
            -57 callgsubr
            hintmask 11100000
            -95 callgsubr
            hintmask 11010000
            -85 callsubr
          </CharString>
          <CharString index="17">
            rmoveto
            139 -10 callsubr
            -109 hlineto
            -116 -135 rlineto
            endchar
          </CharString>
          <CharString index="18">
            rmoveto
            114 -56 39 -85 18 vhcurveto
            -52 11 -17 18 53 vvcurveto
            105 50 39 60 40 41 -9 -8 33 vhcurveto
            -36 callsubr
            8 -28 -42 9 -38 hhcurveto
            -125 -87 -57 -166 -96 45 -43 93 -20 hvcurveto
            46 -10 25 -21 -69 vvcurveto
            -107 -34 -52 -78 -54 -40 9 8 -30 vhcurveto
            -7 -74 rlineto
            -9 34 44 -7 40 hhcurveto
            146 69 64 180 hvcurveto
            endchar
          </CharString>
          <CharString index="19">
            -61 -5 -25 -85 -78 hhcurveto
            -53 -11 27 39 12 1 13 1 14 hvcurveto
            28 330 rlineto
            return
          </CharString>
          <CharString index="20">
            726 rmoveto
            142 -10 callgsubr
            -111 hlineto
            -114 -115 rlineto
            return
          </CharString>
          <CharString index="21">
            77 75 hhcurveto
            58 16 -32 -45 -9 -2 -19 -1 -10 -40 callsubr
            27 320 rlineto
            1 15 1 15 13 vvcurveto
            91 -32 53 -104 return
          </CharString>
          <CharString index="22">
            -39 -24 39 -47 hhcurveto
            -26 -31 -8 -25 -32 hvcurveto
            endchar
          </CharString>
          <CharString index="23">
            rmoveto
            220 -81 137 -229 -229 -91 -136 -221 -226 92 -131 228 228 82 135 222 vhcurveto
            -77 hmoveto
            -176 -43 -113 -190 -190 -53 112 177 179 53 110 190 190 43 -113 -176 vhcurveto
            return
          </CharString>
          <CharString index="24">
            -78 callsubr
            96 hlineto
            66 64 54 -64 rlineto
            return
          </CharString>
          <CharString index="25">
            205 rmoveto
            6 66 rlineto
            -72 hlineto
            38 429 rlineto
            -83 hlineto
            -92 -38 -6 -71 100 38 -32 -358 rlineto
            -88 hlineto
            -6 -66 rlineto
            return
          </CharString>
          <CharString index="26">
            726 rmoveto
            -94 -10 callgsubr
            -111 hlineto
            122 -115 rlineto
            return
          </CharString>
          <CharString index="27">
            hhcurveto
            -134 -38 -55 -94 -8 hvcurveto
            -5 -58 -97 callsubr
            return
          </CharString>
          <CharString index="28">
            hlineto
            -6 -75 rlineto
            return
          </CharString>
          <CharString index="29">
            730 rmoveto
            -101 -10 callgsubr
            -92 hlineto
            -120 -115 rlineto
            return
          </CharString>
          <CharString index="30">
            -62 callsubr
            -380 -79 callsubr
            return
          </CharString>
          <CharString index="31">
            43 500 -82 callgsubr
            return
          </CharString>
          <CharString index="32">
            -49 callgsubr
            -51 34 -40 51 63 37 44 58 5 vhcurveto
            -58 1 -68 callgsubr
          </CharString>
          <CharString index="33">
            -83 callgsubr
            rlineto
            7 -28 -47 9 -33 hhcurveto
            -135 -65 -89 -239 return
          </CharString>
          <CharString index="34">
            -76 callgsubr
            rlineto
            return
          </CharString>
          <CharString index="35">
            rmoveto
            -130 -11 -33 -52 -75 hhcurveto
            return
          </CharString>
          <CharString index="36">
            rmoveto
            5 64 rlineto
            -50 hlineto
            13 143 rlineto
            -74 hlineto
            -13 -143 rlineto
            -77 hlineto
            101 314 rlineto
            -69 hlineto
            -101 -304 -6 -74 rlineto
            147 hlineto
            -11 -117 rlineto
            74 hlineto
            11 117 rlineto
            return
          </CharString>
          <CharString index="37">
            -36 callsubr
            -328 -66 callsubr
            return
          </CharString>
          <CharString index="38">
            8 -51 callgsubr
            -8 -100 return
          </CharString>
          <CharString index="39">
            rmoveto
            103 -135 rlineto
            88 hlineto
            122 -10 callsubr
            -96 hlineto
            -67 -84 -53 84 rlineto
            endchar
          </CharString>
          <CharString index="40">
            171 48 120 245 22 return
          </CharString>
          <CharString index="41">
            hlineto
            -65 callgsubr
            return
          </CharString>
          <CharString index="42">
            43 21 -21 177 75 448 -20 return
          </CharString>
          <CharString index="43">
            -20 130 -20 hstem
            326 -82 callsubr
            return
          </CharString>
          <CharString index="44">
            -193 rmoveto
            -4 20 19 -3 24 hhcurveto
            68 49 31 72 43 -22 20 -55 7 hvcurveto
            return
          </CharString>
          <CharString index="45">
            rmoveto
            -51 callsubr
            return
          </CharString>
          <CharString index="46">
            rlineto
            -1 -8 -1 -17 -7 vvcurveto
            -73 38 -20 38 26 21 5 3 14 vhcurveto
            endchar
          </CharString>
          <CharString index="47">
            hstem
            378 411 rmoveto
            8 89 rlineto
            -288 hlineto
            -6 -74 rlineto
            195 hlineto
            -246 -346 -6 -80 rlineto
            298 hlineto
            6 74 rlineto
            -204 hlineto
            return
          </CharString>
          <CharString index="48">
            -1 -5 -11 -4 -11 hhcurveto
            -22 -8 9 24 return
          </CharString>
          <CharString index="49">
            370 rmoveto
            69 -39 68 -113 return
          </CharString>
          <CharString index="50">
            21 -21 700 -20 return
          </CharString>
          <CharString index="51">
            rlineto
            62 16 -9 -18 -28 -15 -6 -28 -15 -21 2 4 -18 hvcurveto
            endchar
          </CharString>
          <CharString index="52">
            -1 -7 72 139 70 162 71 return
          </CharString>
          <CharString index="53">
            rlineto
            140 hlineto
            -51 callsubr
            -140 hlineto
            18 200 -19 callgsubr
            -18 -200 rlineto
            -141 -79 callsubr
            141 hlineto
            return
          </CharString>
          <CharString index="54">
            -7 73 568 73 return
          </CharString>
          <CharString index="55">
            207 82 207 rlineto
            -67 hlineto
            -107 -207 71 -207 rlineto
            return
          </CharString>
          <CharString index="56">
            6 75 rlineto
            return
          </CharString>
          <CharString index="57">
            75 158 -20 -8 callsubr
            -150 hlineto
            14 158 -19 callgsubr
            -14 -158 rlineto
            return
          </CharString>
          <CharString index="58">
            rmoveto
            -8 -90 rlineto
            95 hlineto
            8 90 44 157 -5 callsubr
            return
          </CharString>
          <CharString index="59">
            -57 callsubr
            hstem
            return
          </CharString>
          <CharString index="60">
            74 228 rmoveto
            -2 return
          </CharString>
          <CharString index="61">
            -700 rlineto
            return
          </CharString>
          <CharString index="62">
            -62 callgsubr
            6 -13 callgsubr
            55 hlineto
            return
          </CharString>
          <CharString index="63">
            -227 -79 -21 910 -20 hstem
            375 810 -67 callgsubr
          </CharString>
          <CharString index="64">
            rlineto
            239 605 rmoveto
            51 18 -34 -69 -15 -1 -27 -2 -18 hvcurveto
            -139 -12 -31 -68 -90 hhcurveto
            return
          </CharString>
          <CharString index="65">
            -21 247 -20 hstem
            return
          </CharString>
          <CharString index="66">
            -132 605 70 hstem
            332 605 rmoveto
            7 70 rlineto
            -255 hlineto
            -7 -70 rlineto
            endchar
          </CharString>
          <CharString index="67">
            hvcurveto
            -27 -320 -4 callgsubr
            return
          </CharString>
          <CharString index="68">
            53 -7 70 374 70 return
          </CharString>
          <CharString index="69">
            844 rmoveto
            103 -115 rlineto
            88 hlineto
            122 -10 callgsubr
            -96 hlineto
            -66 -67 -54 67 rlineto
            return
          </CharString>
          <CharString index="70">
            38 275 75 hstem
            424 -33 callgsubr
            -325 -36 callgsubr
          </CharString>
          <CharString index="71">
            7 73 rlineto
            return
          </CharString>
          <CharString index="72">
            rmoveto
            8 -38 callgsubr
            -8 -90 return
          </CharString>
          <CharString index="73">
            rmoveto
            3 38 2 34 30 vvcurveto
            205 -74 39 -115 -69 -93 -7 0 vhcurveto
            return
          </CharString>
          <CharString index="74">
            78 -7 73 634 -20 return
          </CharString>
          <CharString index="75">
            hhcurveto
            52 12 -29 -41 -11 -2 -22 -1 -12 -40 callsubr
            return
          </CharString>
          <CharString index="76">
            rlineto
            -70 -14 callsubr
            return
          </CharString>
          <CharString index="77">
            113 -21 414 -20 hstem
            return
          </CharString>
          <CharString index="78">
            rlineto
            0 60 4 37 49 35 -27 -139 -32 -2 -37 -4 -45 vhcurveto
            return
          </CharString>
          <CharString index="79">
            73 229 73 return
          </CharString>
          <CharString index="80">
            -500 rlineto
            return
          </CharString>
          <CharString index="81">
            -42 -32 -56 hhcurveto
            -94 hlineto
            25 282 rlineto
            0 39 6 55 61 return
          </CharString>
          <CharString index="82">
            -16 callgsubr
            hintmask 11010000
            return
          </CharString>
          <CharString index="83">
            rlineto
            -110 hlineto
            return
          </CharString>
          <CharString index="84">
            500 rmoveto
            return
          </CharString>
          <CharString index="85">
            rlineto
            0 95 -7 78 139 69 70 298 26 vhcurveto
            return
          </CharString>
          <CharString index="86">
            -167 -24 callgsubr
            165 -110 rmoveto
            return
          </CharString>
          <CharString index="87">
            rlineto
            80 hlineto
            return
          </CharString>
          <CharString index="88">
            -7 0 vhcurveto
            -65 callgsubr
            return
          </CharString>
          <CharString index="89">
            601 -21 135 -20 hstem
            return
          </CharString>
          <CharString index="90">
            hstemhm
            hintmask 10110000
            return
          </CharString>
          <CharString index="91">
            -90 -44 -13 callgsubr
            65 hlineto
            -81 157 rmoveto
            return
          </CharString>
          <CharString index="92">
            rmoveto
            -120 hlineto
            -116 -147 rlineto
            76 hlineto
            return
          </CharString>
          <CharString index="93">
            hlineto
            -43 -27 callsubr
            return
          </CharString>
          <CharString index="94">
            6 -175 75 121 -61 callgsubr
            return
          </CharString>
          <CharString index="95">
            -53 callsubr
            hstem
            return
          </CharString>
          <CharString index="96">
            hlineto
            -7 -75 rlineto
            return
          </CharString>
          <CharString index="97">
            135 rlineto
            return
          </CharString>
          <CharString index="98">
            -132 -120 75 790 75 hstem
            return
          </CharString>
          <CharString index="99">
            hstem
            -4 callsubr
            return
          </CharString>
          <CharString index="100">
            -132 -125 70 810 70 hstem
            return
          </CharString>
          <CharString index="101">
            7 75 rlineto
            return
          </CharString>
          <CharString index="102">
            rlineto
            -65 hlineto
            return
          </CharString>
          <CharString index="103">
            479 -33 callgsubr
            return
          </CharString>
          <CharString index="104">
            75 200 -20 hstem
            256 hmoveto
            return
          </CharString>
          <CharString index="105">
            -7 72 -6 callgsubr
            return
          </CharString>
          <CharString index="106">
            hhcurveto
            -151 return
          </CharString>
        <CharString name=".notdef">
          -63 callgsubr
        </CharString>
        <CharString name=".null">
          -457 endchar
        </CharString>
        <CharString name="A">
          -65 callsubr
          hstem
          -70 callgsubr
          endchar
        </CharString>
        <CharString name="AE">
          286 0 73 104 77 71 -28 callsubr
          hstem
          678 hmoveto
          -64 callgsubr
          -223 hlineto
          -8 252 rlineto
          228 hlineto
          -64 callgsubr
          -237 hlineto
          -7 229 rlineto
          269 -27 callgsubr
          -406 hlineto
          -298 -46 callsubr
          90 hlineto
          72 177 rlineto
          198 hlineto
          5 -177 rlineto
          -16 627 rmoveto
          9 -373 rlineto
          -165 hlineto
          endchar
        </CharString>
        <CharString name="Aacute">
          -65 callsubr
          161 -20 hstem
          297 -87 callsubr
          132 -474 -101 callsubr
          endchar
        </CharString>
        <CharString name="Acircumflex">
          -65 callsubr
          165 -20 hstem
          459 -83 callsubr
          -16 -478 -101 callsubr
          endchar
        </CharString>
        <CharString name="Adieresis">
          -65 callsubr
          55 80 hstem
          -70 callgsubr
          68 -41 callgsubr
          endchar
        </CharString>
        <CharString name="Agrave">
          -65 callsubr
          161 -20 hstem
          390 -81 callsubr
          39 -474 -101 callsubr
          endchar
        </CharString>
        <CharString name="Aring">
          43 21 -21 177 75 453 -20 118 52 hstem
          401 753 -49 callgsubr
          -26 9 -23 15 -17 vhcurveto
          -220 -676 -87 callgsubr
          87 hlineto
          -103 672 23 19 13 28 3 34 rlinecurve
          -55 -501 -73 callgsubr
          48 120 -68 callgsubr
        </CharString>
        <CharString name="Atilde">
          -65 callsubr
          51 -16 callgsubr
          hintmask 11101000
          -70 callgsubr
          -203 734 -57 callgsubr
          hintmask 11110000
          -95 callgsubr
          hintmask 11101000
          -85 callsubr
        </CharString>
        <CharString name="B">
          55 -7 73 266 72 231 72 hstem
          370 204 rmoveto
          -117 -10 -47 -21 -54 hhcurveto
          -42 -49 5 0 hvcurveto
          23 261 rlineto
          93 hlineto
          64 24 -31 -65 -10 -1 -10 -1 -12 hvcurveto
          13 313 rmoveto
          -106 -10 -53 -7 -40 hhcurveto
          -83 hlineto
          20 225 rlineto
          0 35 6 48 64 21 -26 -59 -10 -1 -11 -1 -12 vhcurveto
          76 -316 rmoveto
          1 8 1 18 7 vvcurveto
          89 -48 37 -36 13 vhcurveto
          45 18 49 46 114 vvcurveto
          110 -71 46 -106 -65 -93 -19 callsubr
          0 85 -7 84 131 70 49 159 14 vhcurveto
          endchar
        </CharString>
        <CharString name="C">
          -34 -7 75 564 75 hstem
          375 83 rmoveto
          -80 callgsubr
          -194 59 -50 117 33 57 11 6 22 vhcurveto
          endchar
        </CharString>
        <CharString name="CR">
          -197 endchar
        </CharString>
        <CharString name="Ccedilla">
          -34 -200 63 130 75 564 75 hstem
          152 -63 callsubr
          4 20 34 1 53 10 22 6 rlinecurve
          -36 callsubr
          -80 callgsubr
          -157 39 -63 76 -18 vhcurveto
          -18 -75 -56 callsubr
        </CharString>
        <CharString name="D">
          69 -12 callsubr
          392 354 -20 callgsubr
          49 560 -29 callsubr
          90 7 -34 callsubr
          -61 -700 -22 callsubr
          endchar
        </CharString>
        <CharString name="Delta">
          53 0 73 627 -20 hstem
          475 hmoveto
          -110 -23 callgsubr
          -111 hlineto
          -239 -46 callsubr
          362 73 rmoveto
          -248 hlineto
          175 554 rlineto
          endchar
        </CharString>
        <CharString name="E">
          -54 callgsubr
          hstem
          403 hmoveto
          -98 callsubr
          endchar
        </CharString>
        <CharString name="Eacute">
          -54 callgsubr
          141 -20 hstem
          318 -87 callsubr
          168 -726 rmoveto
          -98 callsubr
          endchar
        </CharString>
        <CharString name="Ecircumflex">
          -54 callgsubr
          145 -20 hstem
          459 -83 callsubr
          41 -730 rmoveto
          -98 callsubr
          endchar
        </CharString>
        <CharString name="Edieresis">
          -54 callgsubr
          35 80 hstem
          403 hmoveto
          -98 callsubr
          373 -41 callgsubr
          endchar
        </CharString>
        <CharString name="Egrave">
          -54 callgsubr
          141 -20 hstem
          380 -81 callsubr
          106 -726 rmoveto
          -98 callsubr
          endchar
        </CharString>
        <CharString name="Eth">
          79 -7 73 259 75 234 73 hstem
          492 361 -34 callsubr
          -26 -300 rlineto
          -71 -79 callsubr
          70 hlineto
          -28 -325 -22 callsubr
          -90 -7 -20 callgsubr
          22 255 rlineto
          113 hlineto
          -51 callsubr
          -112 hlineto
          20 230 -29 callsubr
          endchar
        </CharString>
        <CharString name="Euro">
          -7 73 171 73 97 73 154 73 hstem
          476 691 rmoveto
          9 -29 -42 7 -27 hhcurveto
          -127 -67 -37 -190 -33 hvcurveto
          -45 hlineto
          -26 -73 rlineto
          60 hlineto
          -3 -30 -3 -37 -2 -30 rrcurveto
          -40 hlineto
          -27 -73 rlineto
          65 hlineto
          -194 59 -50 115 33 37 10 6 22 vhcurveto
          7 71 rlineto
          -6 -26 -31 -8 -41 hhcurveto
          -57 -31 23 132 hvcurveto
          16 114 vlineto
          27 73 rlineto
          -138 hlineto
          2 30 3 38 4 29 rrcurveto
          147 hlineto
          26 73 rlineto
          -163 hlineto
          130 23 34 24 58 hhcurveto
          33 27 -5 -8 36 hvcurveto
          endchar
        </CharString>
        <CharString name="F">
          1 21 -21 315 73 239 73 hstem
          457 627 rmoveto
          -70 callsubr
          87 hlineto
          27 315 -69 callgsubr
          21 239 rlineto
          endchar
        </CharString>
        <CharString name="G">
          38 -7 -28 callsubr
          266 73 hstem
          452 368 rmoveto
          -172 hlineto
          -5 callgsubr
          89 hlineto
          -20 -222 rlineto
          -4 -26 -30 -3 -23 hhcurveto
          -63 -33 23 135 11 6 103 1 16 hvcurveto
          242 22 43 38 85 hhcurveto
          43 44 -7 -8 42 hvcurveto
          6 72 rlineto
          6 -25 -53 10 -33 hhcurveto
          -164 -72 -35 callgsubr
          -194 59 -50 123 54 51 7 10 53 vhcurveto
          endchar
        </CharString>
        <CharString name="H">
          93 21 -21 322 74 304 -20 hstem
          455 hmoveto
          61 700 0 callgsubr
          -27 -304 rlineto
          -206 hlineto
          27 304 -30 callgsubr
          87 hlineto
          28 322 rlineto
          206 hlineto
          -28 -322 rlineto
          endchar
        </CharString>
        <CharString name="I">
          -40 callgsubr
          hstem
          262 hmoveto
          -96 callgsubr
          endchar
        </CharString>
        <CharString name="Iacute">
          -40 callgsubr
          141 -20 hstem
          197 -87 callsubr
          148 -726 rmoveto
          -96 callgsubr
          endchar
        </CharString>
        <CharString name="Icircumflex">
          -40 callgsubr
          145 -20 hstem
          368 -78 callsubr
          98 hlineto
          66 64 54 -64 rlineto
          -11 -730 rmoveto
          -96 callgsubr
          endchar
        </CharString>
        <CharString name="Idieresis">
          -40 callgsubr
          35 80 hstem
          262 hmoveto
          -96 callgsubr
          321 -41 callgsubr
          endchar
        </CharString>
        <CharString name="Igrave">
          -40 callgsubr
          141 -20 hstem
          306 -81 callsubr
          39 -726 rmoveto
          -96 callgsubr
          endchar
        </CharString>
        <CharString name="J">
          -57 -7 75 559 73 hstem
          331 251 rmoveto
          40 449 rlineto
          -248 hlineto
          -5 callgsubr
          161 hlineto
          -33 -383 rlineto
          -153 -13 -28 -23 -71 hhcurveto
          -16 -57 5 5 -28 hvcurveto
          -6 -73 rlineto
          -5 32 51 -7 23 hhcurveto
          132 50 42 216 18 hvcurveto
          endchar
        </CharString>
        <CharString name="K">
          35 -48 callsubr
          452 hmoveto
          -166 394 217 306 rlineto
          -93 hlineto
          -214 -307 27 307 -30 callgsubr
          87 hlineto
          22 261 42 60 130 -321 rlineto
          endchar
        </CharString>
        <CharString name="L">
          -47 -26 callgsubr
          55 624 -30 callgsubr
          endchar
        </CharString>
        <CharString name="Lslash">
          -37 -26 callgsubr
          26 295 128 59 7 80 -128 -59 22 249 0 callgsubr
          -26 -291 -62 -29 -7 -80 62 29 -28 -329 rlineto
          endchar
        </CharString>
        <CharString name="M">
          173 -48 callsubr
          535 hmoveto
          61 -23 callgsubr
          -136 hlineto
          -124 -358 -59 358 rlineto
          -141 -66 callsubr
          80 hlineto
          54 628 73 -393 rlineto
          83 hlineto
          143 393 -54 -628 rlineto
          endchar
        </CharString>
        <CharString name="N">
          90 -48 callsubr
          -58 callgsubr
          endchar
        </CharString>
        <CharString name="Ntilde">
          90 -57 callsubr
          51 -25 callsubr
          -58 callgsubr
          -119 734 -91 callsubr
        </CharString>
        <CharString name="O">
          91 -12 callsubr
          414 353 -107 callsubr
          endchar
        </CharString>
        <CharString name="OE">
          304 -7 73 -66 73 252 -28 callsubr
          -66 66 -66 73 hstemhm
          hintmask 01110000
          696 hmoveto
          -64 callgsubr
          -275 hlineto
          37 54 18 84 12 114 rrcurveto
          205 hlineto
          -64 callgsubr
          -206 hlineto
          2 24 1 24 21 vvcurveto
          68 -9 53 -20 39 vhcurveto
          277 -27 callgsubr
          -379 hlineto
          hintmask 10100100
          3 -16 -18 4 -19 hhcurveto
          -171 -47 -114 -235 -21 hvcurveto
          -3 -39 -2 -36 -33 vvcurveto
          -172 51 -85 131 vhcurveto
          hintmask 01110000
          19 18 4 3 17 hvcurveto
          92 353 rmoveto
          hintmask 10101000
          -215 -18 -32 -72 -90 hhcurveto
          -71 -30 46 126 33 2 38 4 44 hvcurveto
          220 20 35 61 90 hhcurveto
          69 28 -36 -117 -35 -2 -42 -5 -51 hvcurveto
          endchar
        </CharString>
        <CharString name="Oacute">
          91 -53 callsubr
          134 -20 hstem
          342 -87 callsubr
          155 -373 -107 callsubr
          endchar
        </CharString>
        <CharString name="Ocircumflex">
          91 -53 callsubr
          138 -20 hstem
          484 -83 callsubr
          27 -377 -107 callsubr
          endchar
        </CharString>
        <CharString name="Odieresis">
          91 -53 callsubr
          28 80 hstem
          471 -41 callgsubr
          228 -382 -107 callsubr
          endchar
        </CharString>
        <CharString name="Ograve">
          91 -53 callsubr
          134 -20 hstem
          399 -81 callsubr
          98 -373 -107 callsubr
          endchar
        </CharString>
        <CharString name="Omega">
          91 0 72 562 73 hstem
          223 hmoveto
          6 74 rlineto
          -43 17 -18 48 98 vvcurveto
          33 2 38 4 45 vhcurveto
          220 20 35 61 90 hhcurveto
          71 30 -37 -124 -33 -2 -40 -4 -47 hvcurveto
          -15 -177 -27 -78 -59 -23 -6 -75 rcurveline
          163 hlineto
          6 72 rlineto
          -60 hlineto
          52 50 23 90 13 146 rrcurveto
          1 15 4 76 12 vvcurveto
          166 -48 80 -136 -169 -50 -53 callgsubr
          vhcurveto
          -1 -16 -5 -84 -13 vvcurveto
          -82 12 -56 31 -35 vhcurveto
          -57 hlineto
          -6 -72 rlineto
          endchar
        </CharString>
        <CharString name="Oslash">
          91 -70 -21 84 73 568 73 84 -20 hstem
          504 358 rmoveto
          3 37 2 34 32 vvcurveto
          94 -16 67 -39 40 vhcurveto
          50 129 rlineto
          -76 hlineto
          -36 -93 rlineto
          6 -20 -22 3 -25 hhcurveto
          -71 callgsubr
          hvcurveto
          -1 -14 -4 -71 -12 vvcurveto
          -106 15 -74 41 -43 vhcurveto
          -50 -129 rlineto
          75 hlineto
          36 92 rlineto
          -5 19 21 -3 25 hhcurveto
          -67 callsubr
          hvcurveto
          -336 -120 rmoveto
          13 5 85 1 17 vhcurveto
          220 20 36 61 89 hhcurveto
          17 15 -3 -5 13 hvcurveto
          -187 -484 rlineto
          -6 25 -3 31 40 vvcurveto
          246 115 -72 callgsubr
          -17 -14 2 6 -12 hvcurveto
          187 483 rlineto
          5 -22 3 -28 -34 vvcurveto
          -34 -3 -39 -4 -47 vhcurveto
          endchar
        </CharString>
        <CharString name="Otilde">
          91 -53 callsubr
          24 -25 callsubr
          414 353 -107 callsubr
          -313 376 -91 callsubr
        </CharString>
        <CharString name="P">
          43 21 -21 274 73 288 72 hstem
          393 488 rmoveto
          -109 -9 -26 callsubr
          23 -34 -72 -13 -1 -13 -1 -15 vhcurveto
          92 41 rmoveto
          105 -50 73 -130 -83 -86 -19 callsubr
          87 hlineto
          23 274 rlineto
          84 hlineto
          145 56 68 140 12 hvcurveto
          1 12 2 24 11 vvcurveto
          endchar
        </CharString>
        <CharString name="Q">
          91 -63 -21 77 73 568 73 hstem
          504 358 -102 callsubr
          vhcurveto
          222 -77 8 84 -115 22 77 50 33 111 16 175 rlinecurve
          -90 -5 -104 callgsubr
          endchar
        </CharString>
        <CharString name="R">
          63 21 -21 290 73 272 72 hstem
          482 503 rmoveto
          1 11 1 11 11 vvcurveto
          104 -48 67 -131 -83 -86 -19 callsubr
          87 hlineto
          25 290 rlineto
          93 hlineto
          101 -290 rlineto
          94 hlineto
          -110 303 75 27 32 69 10 104 rlinecurve
          -90 -7 rmoveto
          -109 -10 -39 -24 -56 hhcurveto
          -94 hlineto
          24 266 rlineto
          0 39 6 55 61 22 -31 -70 -11 -1 -13 -1 -14 vhcurveto
          endchar
        </CharString>
        <CharString name="S">
          -23 -12 callsubr
          390 237 -89 callsubr
        </CharString>
        <CharString name="Scaron">
          -23 -53 callsubr
          137 -20 hstem
          142 -38 callsubr
          151 -607 -89 callsubr
        </CharString>
        <CharString name="T">
          -32 21 -21 624 76 hstem
          454 624 rmoveto
          7 76 rlineto
          -395 hlineto
          -7 -76 rlineto
          154 hlineto
          -54 -624 rlineto
          87 hlineto
          54 624 rlineto
          endchar
        </CharString>
        <CharString name="Thorn">
          53 21 -21 141 73 288 72 126 -20 hstem
          470 350 rmoveto
          1 12 2 24 11 vvcurveto
          104 -47 73 -132 -30 -28 -3 -1 -25 vhcurveto
          12 130 -30 callgsubr
          87 hlineto
          12 141 rlineto
          84 hlineto
          149 52 74 135 11 hvcurveto
          -88 5 rmoveto
          -109 -10 -26 callsubr
          24 -35 -74 -12 -1 -12 -1 -14 vhcurveto
          endchar
        </CharString>
        <CharString name="U">
          -33 callsubr
          hstem
          506 700 -103 callgsubr
        </CharString>
        <CharString name="Uacute">
          -33 callsubr
          161 -20 hstem
          342 -87 callsubr
          247 -26 -103 callgsubr
        </CharString>
        <CharString name="Ucircumflex">
          -33 callsubr
          165 -20 hstem
          479 -83 callsubr
          124 -30 -103 callgsubr
        </CharString>
        <CharString name="Udieresis">
          -33 callsubr
          55 80 hstem
          466 -41 callgsubr
          325 -35 -103 callgsubr
        </CharString>
        <CharString name="Ugrave">
          -33 callsubr
          161 -20 hstem
          389 -81 callsubr
          200 -26 -103 callgsubr
        </CharString>
        <CharString name="V">
          16 -48 callsubr
          489 700 rmoveto
          -86 hlineto
          -173 -612 -56 612 rlineto
          -88 hlineto
          76 -46 callsubr
          119 hlineto
          endchar
        </CharString>
        <CharString name="W">
          147 -48 callsubr
          590 700 rmoveto
          -73 hlineto
          -88 -645 -62 350 rlineto
          -82 hlineto
          -119 -350 27 645 rlineto
          -77 hlineto
          -27 -46 callsubr
          130 hlineto
          99 304 41 -304 rlineto
          136 hlineto
          endchar
        </CharString>
        <CharString name="X">
          39 -48 callsubr
          451 hmoveto
          -137 363 188 337 rlineto
          -95 hlineto
          -128 -243 -85 243 rlineto
          -93 hlineto
          125 -338 -201 -362 rlineto
          96 hlineto
          142 270 92 -270 rlineto
          endchar
        </CharString>
        <CharString name="Y">
          34 -48 callsubr
          522 700 -79 callgsubr
          endchar
        </CharString>
        <CharString name="Yacute">
          34 -57 callsubr
          161 -20 hstem
          322 -87 callsubr
          283 -26 -79 callgsubr
          endchar
        </CharString>
        <CharString name="Ydieresis">
          34 -57 callsubr
          55 80 hstem
          522 700 -79 callgsubr
          139 410 -101 callgsubr
        </CharString>
        <CharString name="Z">
          -21 0 74 552 74 hstem
          434 612 -56 callgsubr
        </CharString>
        <CharString name="Zcaron">
          -21 0 74 552 74 144 -20 hstem
          135 -38 callsubr
          202 -232 -56 callgsubr
        </CharString>
        <CharString name="a">
          -66 callgsubr
          hstemhm
          hintmask 10100000
          -96 callsubr
          hintmask 01100000
          -107 callgsubr
          endchar
        </CharString>
        <CharString name="aacute">
          -104 callsubr
          121 515 -90 callsubr
        </CharString>
        <CharString name="acircumflex">
          -104 callsubr
          255 515 -92 callgsubr
        </CharString>
        <CharString name="acute">
          -154 -18 callsubr
          171 580 -90 callsubr
        </CharString>
        <CharString name="adieresis">
          -66 callgsubr
          88 80 -105 callgsubr
          237 530 -101 callgsubr
        </CharString>
        <CharString name="ae">
          258 -7 72 144 70 -49 68 137 72 -17 callsubr
          668 370 rmoveto
          70 -39 67 -113 -55 -43 -16 -37 -33 vhcurveto
          32 -21 -40 21 -68 hhcurveto
          -49 -50 -9 -11 -38 hvcurveto
          -6 -74 rlineto
          14 51 38 8 57 hhcurveto
          46 24 -28 -36 -11 -6 -67 0 hvcurveto
          3 -26 -28 2 -25 hhcurveto
          -120 -73 -50 -126 -102 78 -27 59 78 44 27 42 28 hvcurveto
          -57 25 50 -12 64 hhcurveto
          -34 callgsubr
          hvcurveto
          -77 callgsubr
          -39 20 92 hvcurveto
          36 vlineto
          hintmask 11010000
          -3 29 21 -1 26 hhcurveto
          113 82 39 122 hvcurveto
          -454 -305 rmoveto
          -49 -26 17 51 hvcurveto
          hintmask 10110000
          74 48 23 46 28 29 -2 -3 27 vhcurveto
          -9 -93 rlineto
          -22 -2 -27 -45 -65 hhcurveto
          301 371 rmoveto
          61 12 -32 -38 hvcurveto
          hintmask 11010000
          -66 -36 -21 -94 -20 -15 1 2 -21 vhcurveto
          119 14 40 35 59 hhcurveto
          endchar
        </CharString>
        <CharString name="agrave">
          -104 callsubr
          174 515 -85 callgsubr
        </CharString>
        <CharString name="ampersand">
          50 -7 73 301 73 194 73 hstem
          70 158 rmoveto
          -119 56 -46 99 62 50 4 8 52 vhcurveto
          31 362 rlineto
          84 hlineto
          -64 callgsubr
          -235 hlineto
          -57 -19 37 48 96 51 13 53 30 59 -12 -3 11 hvcurveto
          -36 callsubr
          4 -12 -45 11 -42 hhcurveto
          -103 -94 -24 -162 -38 16 -47 40 -29 hvcurveto
          -75 -21 -25 -112 -116 vvcurveto
          162 -92 rmoveto
          -46 -30 37 64 98 27 102 71 hvcurveto
          87 hlineto
          -25 -293 rlineto
          -3 -14 -29 -5 -41 hhcurveto
          endchar
        </CharString>
        <CharString name="approxequal">
          53 169 75 -36 75 56 75 -36 75 hstemhm
          hintmask 01100000
          90 172 rmoveto
          19 29 -50 callgsubr
          hintmask 01010000
          -28 callgsubr
          -49 hvcurveto
          8 92 rmoveto
          19 30 -50 callgsubr
          hintmask 10010000
          -28 callgsubr
          -49 hvcurveto
          endchar
        </CharString>
        <CharString name="aring">
          -66 callgsubr
          36 54 98 52 hstemhm
          hintmask 10111000
          -96 callsubr
          hintmask 01111000
          -107 callgsubr
          184 580 -75 callsubr
        </CharString>
        <CharString name="asciicircum">
          30 441 -21 340 -20 hstem
          468 420 rmoveto
          -109 340 rlineto
          -114 hlineto
          -174 -340 rlineto
          90 hlineto
          139 280 79 -280 rlineto
          endchar
        </CharString>
        <CharString name="asciitilde">
          53 263 75 -36 75 hstemhm
          hintmask 01000000
          98 266 rmoveto
          19 29 32 -9 callgsubr
          hintmask 10000000
          56 30 -39 56 hhcurveto
          37 36 13 20 31 hvcurveto
          7 78 rlineto
          -19 -29 -32 -17 -35 hhcurveto
          hintmask 01000000
          -28 callgsubr
          -48 hvcurveto
          endchar
        </CharString>
        <CharString name="asterisk">
          25 347 -21 379 -20 hstem
          457 529 rmoveto
          -25 79 -139 -53 13 150 rlineto
          -90 hlineto
          13 -150 -137 55 -27 -80 141 -30 -103 -122 69 -52 88 143 86 -142 71 50 -103 123 rlineto
          endchar
        </CharString>
        <CharString name="at">
          358 -7 71 52 65 -37 70 263 67 92 71 hstemhm
          hintmask 10111000
          486 281 rmoveto
          -29 -2 -22 -38 -60 hhcurveto
          -39 -27 13 75 150 64 25 66 14 15 -3 -2 8 hvcurveto
          252 -71 rmoveto
          2 24 1 22 21 vvcurveto
          197 -96 42 -203 -248 -82 -80 -282 -24 vhcurveto
          -3 -32 -1 -29 -27 vvcurveto
          -190 76 -74 216 49 74 7 5 35 vhcurveto
          6 71 rlineto
          -3 -28 -81 -9 -49 hhcurveto
          -171 -45 53 135 28 2 30 3 35 hvcurveto
          228 20 45 63 200 hhcurveto
          175 48 -28 -129 -23 -1 -25 -3 -30 hvcurveto
          hintmask 11011000
          -136 -12 -16 -84 -52 hhcurveto
          -22 -11 17 19 1 2 21 1 12 hvcurveto
          24 279 rlineto
          7 -30 -42 7 -29 hhcurveto
          -126 -103 -42 -204 hvcurveto
          hintmask 10111000
          -124 61 -30 58 56 45 20 27 21 vhcurveto
          hintmask 11011000
          -52 5 50 -23 33 hhcurveto
          127 27 110 175 16 hvcurveto
          endchar
        </CharString>
        <CharString name="atilde">
          -66 callgsubr
          84 70 -31 70 -17 callsubr
          -96 callsubr
          hintmask 01101000
          -107 callgsubr
          -45 529 -57 callgsubr
          hintmask 10110000
          -95 callgsubr
          hintmask 10101000
          -85 callsubr
        </CharString>
        <CharString name="b">
          42 -2 callsubr
          193 -20 hstem
          448 282 rmoveto
          2 18 0 18 16 vvcurveto
          108 -36 65 -100 -55 -38 -22 -30 -27 vhcurveto
          22 245 -82 callgsubr
          -61 -695 rlineto
          -7 42 51 -5 47 hhcurveto
          164 55 74 215 19 hvcurveto
          -154 153 rmoveto
          51 18 -34 -69 -15 0 -17 -2 -18 hvcurveto
          -139 -12 -27 -78 -95 hhcurveto
          -30 -21 1 2 -16 hvcurveto
          21 232 rlineto
          58 5 30 77 78 hhcurveto
          endchar
        </CharString>
        <CharString name="backslash">
          -132 -24 callgsubr
          221 -110 rmoveto
          79 hlineto
          -156 920 rlineto
          -79 hlineto
          endchar
        </CharString>
        <CharString name="bar">
          -21 callsubr
          80 920 -19 callgsubr
          -80 -920 rlineto
          endchar
        </CharString>
        <CharString name="braceleft">
          -7 callsubr
          182 -19 rmoveto
          3 2 18 1 15 vhcurveto
          17 194 rlineto
          1 9 2 18 3 vvcurveto
          64 -53 37 -43 5 vhcurveto
          46 7 63 28 7 87 21 244 rcurveline
          30 3 15 12 31 hhcurveto
          13 11 -2 -1 6 hvcurveto
          6 68 rlineto
          2 -10 -21 3 -13 hhcurveto
          -88 -24 -38 -89 -8 hvcurveto
          -18 -199 rlineto
          -83 -7 -44 -11 -38 hhcurveto
          -10 -110 rlineto
          34 40 -9 -68 -5 -2 -21 -1 -11 hvcurveto
          -14 -169 rlineto
          -1 -9 -1 -18 -7 vvcurveto
          -68 28 -35 71 13 22 3 2 10 vhcurveto
          6 68 rlineto
          -1 -6 -12 -2 -13 hhcurveto
          -29 -13 10 26 hvcurveto
          endchar
        </CharString>
        <CharString name="braceright">
          -7 callsubr
          315 405 rmoveto
          -34 -40 10 67 7 2 19 1 11 hvcurveto
          14 159 rlineto
          1 9 2 28 7 vvcurveto
          68 -28 35 -71 -13 -23 -3 -2 -10 vhcurveto
          -6 -68 rlineto
          1 6 13 2 13 hhcurveto
          28 14 -10 -24 -3 -2 -14 -1 -15 hvcurveto
          -17 -200 rlineto
          -1 -12 -1 -16 -4 vvcurveto
          -65 53 -32 41 -7 vhcurveto
          -45 -5 -62 -33 -8 -84 -22 -244 rcurveline
          -30 -3 -13 -12 -32 hhcurveto
          -13 -12 2 1 -6 hvcurveto
          -6 -68 rlineto
          -2 10 22 -3 13 hhcurveto
          78 34 31 96 8 hvcurveto
          17 199 rlineto
          83 7 45 11 37 hhcurveto
          endchar
        </CharString>
        <CharString name="bracketleft">
          -9 callsubr
          254 -120 rmoveto
          7 75 -24 callsubr
          69 790 rlineto
          110 hlineto
          -51 callsubr
          -190 hlineto
          -82 -940 rlineto
          endchar
        </CharString>
        <CharString name="bracketright">
          -9 callsubr
          219 -120 rmoveto
          82 940 rlineto
          -190 -79 callsubr
          110 hlineto
          -69 -790 rlineto
          -110 -11 callsubr
          endchar
        </CharString>
        <CharString name="breve">
          -103 595 61 69 -20 hstem
          291 725 rmoveto
          -36 -7 -14 -33 -46 hhcurveto
          -44 -10 33 36 hvcurveto
          -82 hlineto
          -55 4 30 -75 97 hhcurveto
          116 23 75 55 14 hvcurveto
          endchar
        </CharString>
        <CharString name="brokenbar">
          -21 callsubr
          31 360 -19 callgsubr
          -31 -360 rlineto
          129 560 rmoveto
          31 360 -19 callgsubr
          -31 -360 rlineto
          endchar
        </CharString>
        <CharString name="bullet">
          -167 256 -21 155 -20 hstem
          230 235 rmoveto
          14 155 rlineto
          -150 hlineto
          -14 -155 rlineto
          endchar
        </CharString>
        <CharString name="c">
          -53 -7 75 364 75 hstem
          346 85 rmoveto
          -74 callsubr
          -157 56 -29 100 36 42 8 9 32 hvcurveto
          endchar
        </CharString>
        <CharString name="caron">
          -74 600 -21 135 -20 hstem
          87 714 -68 callsubr
        </CharString>
        <CharString name="ccedilla">
          -53 -200 63 130 75 364 75 hstem
          136 -63 callsubr
          4 20 33 2 35 7 28 8 rlinecurve
          -6 callsubr
          -74 callsubr
          -129 37 -42 69 -11 hvcurveto
          -18 -73 -56 callsubr
        </CharString>
        <CharString name="cedilla">
          -155 -200 63 187 -20 hstem
          38 -63 callsubr
          18 77 -5 callsubr
          -31 -126 -56 callsubr
        </CharString>
        <CharString name="cent">
          -79 -21 94 73 533 -20 hstem
          298 -100 rmoveto
          8 95 23 3 23 5 20 6 rlinecurve
          -6 callsubr
          -83 callgsubr
          -17 4 -24 5 -23 3 rlinecurve
          9 98 -19 callgsubr
          -9 -96 rlineto
          -111 -16 -53 -93 -217 vvcurveto
          -137 42 -40 78 -7 vhcurveto
          -8 -94 rlineto
          endchar
        </CharString>
        <CharString name="circumflex">
          -74 -18 callsubr
          388 580 -92 callgsubr
        </CharString>
        <CharString name="colon">
          -227 0 100 300 -22 callgsubr
          134 400 -42 callgsubr
          endchar
        </CharString>
        <CharString name="comma">
          -227 -119 -21 240 -20 -31 callgsubr
          endchar
        </CharString>
        <CharString name="copyright">
          343 -7 68 94 50 290 50 94 68 hstem
          491 211 rmoveto
          -3 -14 -25 -3 -23 hhcurveto
          -40 -20 9 138 133 19 10 40 20 25 -2 -4 18 hvcurveto
          48 vlineto
          3 -8 -32 5 -15 hhcurveto
          -80 -44 -27 -162 -164 39 -37 79 18 31 5 3 12 hvcurveto
          244 187 -84 callsubr
          endchar
        </CharString>
        <CharString name="currency">
          113 65 70 -67 -21 418 70 18 -20 hstemhm
          hintmask 01010000
          502 47 rmoveto
          56 56 -63 63 rlineto
          19 35 11 45 54 vvcurveto
          54 -11 44 -19 35 vhcurveto
          63 64 -56 56 -60 -59 rlineto
          hintmask 10100000
          27 -37 -48 14 -52 hhcurveto
          -53 -47 -14 -27 -38 hvcurveto
          hintmask 01010000
          -59 59 -56 -56 63 -64 rlineto
          -19 -35 -11 -44 -54 vvcurveto
          -54 11 -45 19 -35 vhcurveto
          -63 -63 56 -56 59 59 rlineto
          hintmask 10100000
          -28 38 47 -13 53 hhcurveto
          52 48 13 28 37 hvcurveto
          hintmask 01100000
          -4 194 rmoveto
          hintmask 10100000
          -108 -58 -57 -75 -75 -58 57 108 108 58 57 75 75 58 -57 -108 vhcurveto
          endchar
        </CharString>
        <CharString name="d">
          47 -7 72 -44 -21 435 72 193 -20 -17 callsubr
          -47 callsubr
          -19 0 -18 -17 vvcurveto
          -120 41 -61 91 62 43 29 38 30 vhcurveto
          hintmask 01110000
          5 -60 -29 callgsubr
          61 700 -82 callgsubr
          -18 -198 rlineto
          3 -17 -19 2 -19 hhcurveto
          -161 -64 -46 callgsubr
          hintmask 10110000
          -45 callgsubr
          -2 15 hvcurveto
          -21 -232 rlineto
          -59 -5 -37 -75 -77 hhcurveto
          endchar
        </CharString>
        <CharString name="dagger">
          -6 21 -21 425 -3 callsubr
          37 425 -54 callsubr
          -37 -425 rlineto
          endchar
        </CharString>
        <CharString name="daggerdbl">
          -6 21 -21 210 75 140 -3 callsubr
          18 210 rlineto
          140 hlineto
          -51 callsubr
          -139 hlineto
          12 140 -54 callsubr
          -12 -140 rlineto
          -142 -79 callsubr
          141 hlineto
          -18 -210 rlineto
          endchar
        </CharString>
        <CharString name="degree">
          -94 392 64 187 62 hstem
          298 567 rmoveto
          -50 -1 -19 -61 -68 hhcurveto
          -54 -16 40 41 49 20 57 67 55 16 -36 -40 hvcurveto
          74 4 rmoveto
          77 -39 57 -101 -118 -47 -80 -96 -76 39 -61 99 119 48 84 95 vhcurveto
          endchar
        </CharString>
        <CharString name="dieresis">
          -102 595 80 hstem
          362 595 -101 callgsubr
        </CharString>
        <CharString name="divide">
          93 65 100 110 75 110 100 hstem
          cntrmask 11100000
          479 275 -77 callsubr
          221 -210 -42 callgsubr
          135 395 rmoveto
          -69 callsubr
          rlineto
          endchar
        </CharString>
        <CharString name="dollar">
          -109 -21 125 73 534 73 105 -20 hstem
          255 -130 rmoveto
          11 132 73 16 43 47 12 129 rlinecurve
          1 12 1 11 11 vvcurveto
          100 -46 47 -85 18 vhcurveto
          -45 10 -16 26 49 vvcurveto
          96 40 28 57 35 37 -7 -8 33 vhcurveto
          6 73 -26 7 -26 7 -34 1 rlinecurve
          9 105 -82 callgsubr
          -10 -113 rlineto
          -75 -18 -51 -52 -125 vvcurveto
          -85 49 -60 82 -17 vhcurveto
          39 -8 22 -24 -65 vvcurveto
          -95 -26 -50 -75 -46 -38 7 8 -30 vhcurveto
          -7 -73 31 -9 32 -5 34 -1 rlinecurve
          -11 -125 rlineto
          endchar
        </CharString>
        <CharString name="dotaccent">
          -293 615 85 hstem
          163 615 rmoveto
          8 85 -82 callgsubr
          -8 -85 rlineto
          endchar
        </CharString>
        <CharString name="dotlessi">
          -39 callgsubr
          -78 callgsubr
          endchar
        </CharString>
        <CharString name="dotmath">
          -88 callgsubr
        </CharString>
        <CharString name="e">
          -55 callsubr
          -106 callgsubr
          endchar
        </CharString>
        <CharString name="eacute">
          -100 callgsubr
          35 144 -90 callsubr
        </CharString>
        <CharString name="ecircumflex">
          -100 callgsubr
          171 144 -92 callgsubr
        </CharString>
        <CharString name="edieresis">
          -55 callsubr
          88 80 -106 callgsubr
          161 159 -101 callgsubr
        </CharString>
        <CharString name="egrave">
          -100 callgsubr
          86 144 -85 callgsubr
        </CharString>
        <CharString name="eight">
          -7 72 270 61 239 72 hstem
          346 233 rmoveto
          -104 -19 -64 -97 -62 -31 23 73 111 25 33 58 30 vhcurveto
          101 25 -29 -73 hvcurveto
          16 315 rmoveto
          -62 -16 -68 -58 -22 vhcurveto
          -84 -26 27 67 96 27 49 75 59 23 -29 -58 hvcurveto
          69 -318 rmoveto
          68 -22 59 -56 13 vhcurveto
          77 34 15 60 85 vvcurveto
          121 -70 37 -89 -110 -82 -48 -165 -57 20 -54 41 -21 vhcurveto
          -51 -22 -52 -41 -138 vvcurveto
          -114 54 -54 118 152 55 85 152 vhcurveto
          endchar
        </CharString>
        <CharString name="ellipsis">
          213 0 -22 callgsubr
          320 -73 callsubr
          320 -73 callsubr
          endchar
        </CharString>
        <CharString name="emdash">
          148 275 75 hstem
          554 -33 callgsubr
          -475 -36 callgsubr
        </CharString>
        <CharString name="endash">
          -37 callgsubr
        </CharString>
        <CharString name="equal">
          93 175 75 125 75 hstem
          470 175 -77 callsubr
          397 200 rmoveto
          -6 callsubr
          -380 -11 callsubr
          endchar
        </CharString>
        <CharString name="eth">
          46 -7 72 327 72 173 70 43 -20 hstem
          406 750 rmoveto
          -82 hlineto
          -36 -53 -36 6 -42 2 -46 2 rlinecurve
          -6 -70 33 -2 29 -1 25 -2 rlinecurve
          -51 -76 rlineto
          82 hlineto
          39 58 rlineto
          37 -21 17 -41 -86 vvcurveto
          -4 0 -13 -1 -16 vhcurveto
          14 -22 -35 17 -50 hhcurveto
          -147 -24 -100 -144 -12 hvcurveto
          -1 -15 -1 -14 -13 vvcurveto
          -134 67 -51 91 148 41 66 330 28 vhcurveto
          1 10 3 58 8 vvcurveto
          125 -35 58 -63 29 vhcurveto
          -111 -612 rmoveto
          -65 -21 38 68 12 1 14 1 14 hvcurveto
          112 10 18 69 72 hhcurveto
          51 38 -21 -7 12 hvcurveto
          -262 -24 -33 -37 -60 hhcurveto
          endchar
        </CharString>
        <CharString name="exclam">
          -207 0 100 600 -20 hstem
          165 -73 callsubr
          110 208 rmoveto
          43 492 -82 callgsubr
          -43 -492 rlineto
          endchar
        </CharString>
        <CharString name="exclamdown">
          -207 -179 -21 600 100 hstem
          108 -23 callsubr
          -9 -100 rlineto
          100 hlineto
          9 100 rlineto
          -110 -208 rmoveto
          -43 -492 -4 callgsubr
          43 492 rlineto
          endchar
        </CharString>
        <CharString name="f">
          -94 callsubr
        </CharString>
        <CharString name="fi">
          53 -175 72 124 -21 427 73 137 70 hstem
          420 hmoveto
          43 500 rlineto
          -255 hlineto
          6 65 rlineto
          45 4 15 27 82 hhcurveto
          36 54 -6 -14 47 hvcurveto
          7 70 rlineto
          12 -52 -56 8 -43 -80 callsubr
          169 hlineto
          -36 -427 rlineto
          endchar
        </CharString>
        <CharString name="five">
          -7 73 282 73 206 73 hstem
          404 627 rmoveto
          -36 callsubr
          -265 hlineto
          -31 -352 rlineto
          110 hlineto
          56 23 -22 -75 -113 -26 -72 -69 -55 -55 13 4 -17 hvcurveto
          -5 callgsubr
          -6 30 43 -11 51 hhcurveto
          141 51 90 178 104 -39 56 -126 hvcurveto
          -20 hlineto
          18 206 rlineto
          endchar
        </CharString>
        <CharString name="fl">
          68 -175 72 100 73 357 73 138 69 -7 -20 hstemhm
          hintmask 11101000
          486 -59 callgsubr
          49 563 -82 callgsubr
          hintmask 11110000
          3 -21 -34 4 -33 -80 callsubr
          94 hlineto
          -64 callgsubr
          -94 hlineto
          6 65 rlineto
          45 4 15 28 82 hhcurveto
          20 27 -2 -4 28 hvcurveto
          -45 -510 -61 callsubr
        </CharString>
        <CharString name="florin">
          -94 callsubr
        </CharString>
        <CharString name="four">
          21 -21 156 73 471 -20 hstem
          425 156 rmoveto
          -36 callsubr
          -70 hlineto
          19 228 -82 callgsubr
          -19 -228 rlineto
          -113 hlineto
          136 471 rlineto
          -81 hlineto
          -139 -458 -8 -86 rlineto
          198 hlineto
          -13 -156 -4 callgsubr
          13 156 rlineto
          endchar
        </CharString>
        <CharString name="fraction">
          -44 callsubr
        </CharString>
        <CharString name="g">
          47 -187 73 117 72 360 72 hstem
          74 233 rmoveto
          -2 -20 0 -18 -17 vvcurveto
          -119 40 -56 92 59 41 23 33 29 vhcurveto
          -3 -39 rlineto
          -117 -10 -31 -17 -66 hhcurveto
          -36 -53 9 6 -29 hvcurveto
          -7 -74 rlineto
          -7 33 51 -7 30 hhcurveto
          132 54 23 204 18 hvcurveto
          40 445 rlineto
          11 -40 -48 11 -51 hhcurveto
          -157 -68 -77 -197 -18 hvcurveto
          152 -158 rmoveto
          -48 -19 32 69 14 1 16 1 17 hvcurveto
          139 13 31 73 95 hhcurveto
          30 21 -3 -2 15 hvcurveto
          -20 -227 rlineto
          -56 -5 -36 -72 -79 hhcurveto
          endchar
        </CharString>
        <CharString name="germandbls">
          62 -7 72 -44 -21 635 72 hstemhm
          hintmask 01100000
          463 175 rmoveto
          83 -57 43 -60 25 vhcurveto
          -17 7 -13 19 17 vvcurveto
          45 29 18 81 vhcurveto
          16 55 12 28 59 vvcurveto
          77 -53 56 -99 -115 -61 -63 -111 -10 vhcurveto
          -46 -533 -4 callgsubr
          47 540 rlineto
          65 6 36 30 50 hhcurveto
          62 24 -33 -34 -28 -7 -25 -8 -19 hvcurveto
          -76 -12 -54 -33 -91 vvcurveto
          -50 22 -30 50 -24 vhcurveto
          50 -23 17 -23 -44 vvcurveto
          hintmask 10100000
          -50 -20 -51 -66 -23 -29 5 6 -22 vhcurveto
          -6 -73 rlineto
          -5 18 40 -5 13 hhcurveto
          126 58 57 125 hvcurveto
          endchar
        </CharString>
        <CharString name="grave">
          -154 -18 callsubr
          300 580 -85 callgsubr
        </CharString>
        <CharString name="greater">
          93 126 -21 459 -15 callgsubr
          179 -8 -90 304 -136 -328 -137 -8 -96 rlineto
          endchar
        </CharString>
        <CharString name="greaterequal">
          93 0 75 490 -15 callgsubr
          180 -8 -92 296 -136 -318 -117 -9 -95 rlineto
          370 -125 -77 callsubr
          endchar
        </CharString>
        <CharString name="guillemotleft">
          8 -30 callsubr
          228 92 rmoveto
          -45 -52 callsubr
          226 hmoveto
          -45 -52 callsubr
          endchar
        </CharString>
        <CharString name="guillemotright">
          8 -30 callsubr
          299 92 rmoveto
          -55 callgsubr
          -93 hmoveto
          -55 callgsubr
          endchar
        </CharString>
        <CharString name="guilsinglleft">
          -152 -30 callsubr
          227 92 rmoveto
          -44 -52 callsubr
          endchar
        </CharString>
        <CharString name="guilsinglright">
          -152 -30 callsubr
          139 92 rmoveto
          -55 callgsubr
          endchar
        </CharString>
        <CharString name="h">
          49 21 -21 435 72 193 -20 hstem
          155 hmoveto
          26 296 rlineto
          62 5 31 -86 callsubr
          -54 -37 -20 -32 -28 vhcurveto
          21 245 rlineto
          -85 -66 callsubr
          endchar
        </CharString>
        <CharString name="hungarumlaut">
          6 619 -21 147 -20 hstem
          313 745 -15 callsubr
          330 147 -15 callsubr
          endchar
        </CharString>
        <CharString name="hyphen">
          -37 callsubr
        </CharString>
        <CharString name="i">
          -39 callgsubr
          130 90 hstem
          213 -48 callgsubr
          rlineto
          37 -610 rmoveto
          -76 callsubr
          -43 -500 rlineto
          endchar
        </CharString>
        <CharString name="iacute">
          -74 callgsubr
          111 580 -90 callsubr
        </CharString>
        <CharString name="icircumflex">
          -74 callgsubr
          249 580 -92 callgsubr
        </CharString>
        <CharString name="idieresis">
          -39 callgsubr
          115 80 -78 callgsubr
          237 595 -101 callgsubr
        </CharString>
        <CharString name="igrave">
          -74 callgsubr
          159 580 -85 callgsubr
        </CharString>
        <CharString name="infinity">
          273 166 73 182 73 hstem
          249 421 rmoveto
          47 38 -23 -39 12 hvcurveto
          -87 -7 -28 -33 -78 hhcurveto
          -57 -32 20 56 78 40 28 65 hvcurveto
          130 -176 rmoveto
          -62 30 48 -17 49 hhcurveto
          140 57 69 115 91 -59 53 -109 -78 -45 -31 -48 -27 hvcurveto
          62 -30 -50 17 -48 hhcurveto
          -138 -58 -69 -115 -91 59 -53 108 73 51 31 48 27 hvcurveto
          136 -6 rmoveto
          -47 -37 23 39 -13 hvcurveto
          87 8 27 33 78 hhcurveto
          58 31 -21 -56 -78 -41 -27 -64 hvcurveto
          endchar
        </CharString>
        <CharString name="integral">
          -132 -240 72 921 72 hstem
          -50 -230 rmoveto
          -4 20 31 -6 42 hhcurveto
          75 55 31 96 8 hvcurveto
          71 818 rlineto
          29 3 21 19 35 hhcurveto
          36 24 -4 -5 21 hvcurveto
          6 71 rlineto
          4 -20 -30 6 -43 hhcurveto
          -86 -44 -41 -86 -8 hvcurveto
          -72 -818 rlineto
          -29 -2 -21 -19 -36 hhcurveto
          -35 -24 4 5 -20 hvcurveto
          endchar
        </CharString>
        <CharString name="j">
          -212 -175 72 603 -20 130 90 hstem
          198 -23 callsubr
          -85 hlineto
          -48 -548 -86 callgsubr
          28 -2 31 hhcurveto
          92 37 57 75 7 hvcurveto
          62 653 -35 callsubr
          rlineto
          endchar
        </CharString>
        <CharString name="k">
          7 -47 callgsubr
          220 -20 hstem
          419 hmoveto
          -150 307 186 193 rlineto
          -109 hlineto
          -163 -172 33 372 rlineto
          -85 -66 callsubr
          85 hlineto
          18 214 33 34 116 -248 rlineto
          endchar
        </CharString>
        <CharString name="l">
          -187 -3 73 630 -20 hstem
          221 -59 callgsubr
          49 563 -82 callgsubr
          -51 -578 -61 callsubr
        </CharString>
        <CharString name="less">
          93 126 -21 459 -20 hstem
          464 105 rmoveto
          8 92 -298 137 322 136 8 94 -396 -179 -9 -105 rlineto
          endchar
        </CharString>
        <CharString name="lessequal">
          93 0 75 489 -20 hstem
          465 125 rmoveto
          9 93 -298 117 320 136 8 93 -396 -179 -9 -105 rlineto
          356 -280 -77 callsubr
          endchar
        </CharString>
        <CharString name="logicaland">
          -88 callgsubr
        </CharString>
        <CharString name="logicalnot">
          148 127 -21 169 75 hstem
          539 106 rmoveto
          21 244 rlineto
          -475 -79 callsubr
          389 hlineto
          -14 -169 rlineto
          endchar
        </CharString>
        <CharString name="lozenge">
          -48 callsubr
          450 350 rmoveto
          -109 350 -24 callsubr
          -171 -350 108 -350 rlineto
          112 hlineto
          85 350 rmoveto
          -136 -280 -84 280 137 280 rlineto
          endchar
        </CharString>
        <CharString name="lslash">
          -177 -3 73 630 -20 hstem
          231 -59 callgsubr
          22 252 68 41 7 80 -68 -42 20 232 -82 callgsubr
          -25 -287 -58 -35 -7 -78 58 35 -19 -213 -61 callsubr
        </CharString>
        <CharString name="m">
          273 -17 callgsubr
          hstemhm
          hintmask 11000000
          155 hmoveto
          25 296 rlineto
          61 5 22 78 75 -32 callsubr
          25 299 rlineto
          60 5 22 76 74 -32 callsubr
          26 310 rlineto
          2 22 1 20 15 vvcurveto
          88 -28 52 -98 -64 -38 -25 -42 -27 vhcurveto
          43 -15 -35 24 -66 hhcurveto
          -57 -36 -23 -38 -27 hvcurveto
          hintmask 10100000
          -1 54 -31 callsubr
          endchar
        </CharString>
        <CharString name="macron">
          -41 callsubr
        </CharString>
        <CharString name="minus">
          -37 callgsubr
        </CharString>
        <CharString name="mu">
          -92 callsubr
        </CharString>
        <CharString name="multiply">
          93 158 -21 346 -20 hstem
          410 137 rmoveto
          56 56 -116 117 116 117 -56 56 -117 -116 -117 116 -56 -56 116 -117 -116 -117 56 -56 117 116 rlineto
          endchar
        </CharString>
        <CharString name="n">
          49 -17 callgsubr
          hstemhm
          hintmask 11000000
          -75 callgsubr
          hintmask 10100000
          -1 58 -31 callsubr
          endchar
        </CharString>
        <CharString name="nine">
          -7 72 191 72 307 72 hstem
          84 421 rmoveto
          -103 33 -62 108 49 36 16 14 23 vhcurveto
          -193 -21 -31 -28 -70 hhcurveto
          -43 -36 10 6 -25 hvcurveto
          -5 callgsubr
          -5 17 47 -10 31 hhcurveto
          145 57 52 275 24 hvcurveto
          6 68 3 56 47 vvcurveto
          182 -47 34 -103 -136 -60 -105 -181 vhcurveto
          154 -93 rmoveto
          -54 -15 28 61 137 30 81 75 48 25 -18 -116 -38 -3 -48 -5 -61 hvcurveto
          -7 -14 -38 -19 -49 hhcurveto
          endchar
        </CharString>
        <CharString name="notequal">
          93 91 -21 105 75 125 75 105 -20 hstem
          487 375 rmoveto
          7 75 -5 callsubr
          74 105 -19 callgsubr
          -74 -105 rlineto
          -235 -11 callsubr
          189 hlineto
          -88 -125 rlineto
          -112 -79 callsubr
          65 hlineto
          -74 -105 -20 callsubr
          74 105 rlineto
          235 hlineto
          -51 callsubr
          -188 hlineto
          88 125 rlineto
          endchar
        </CharString>
        <CharString name="ntilde">
          49 -17 callgsubr
          111 -25 callsubr
          -75 callgsubr
          hintmask 10101000
          -1 58 -31 callsubr
          105 594 -57 callgsubr
          hintmask 11010000
          -95 callgsubr
          hintmask 11001000
          -85 callsubr
        </CharString>
        <CharString name="numbersign">
          21 -21 180 75 200 75 170 -20 hstem
          287 255 rmoveto
          -80 hlineto
          17 200 -20 callsubr
          126 -275 rmoveto
          -6 callsubr
          -70 hlineto
          17 200 -29 callgsubr
          -6 callsubr
          -70 hlineto
          15 170 -19 callgsubr
          -15 -170 -19 callgsubr
          15 170 -19 callgsubr
          -15 -170 rlineto
          -70 -11 callsubr
          70 hlineto
          -17 -200 rlineto
          -70 -11 callsubr
          70 hlineto
          -15 -180 -20 callsubr
          15 180 -20 callsubr
          -15 -180 -20 callsubr
          15 180 rlineto
          endchar
        </CharString>
        <CharString name="o">
          -39 callsubr
          hstem
          -106 callsubr
          endchar
        </CharString>
        <CharString name="oacute">
          -99 callsubr
          -56 335 -90 callsubr
        </CharString>
        <CharString name="ocircumflex">
          -99 callsubr
          83 335 -92 callgsubr
        </CharString>
        <CharString name="odieresis">
          -39 callsubr
          88 80 hstem
          -106 callsubr
          71 350 -101 callgsubr
        </CharString>
        <CharString name="oe">
          291 -7 72 139 70 163 70 hstem
          718 -58 callsubr
          -60 -47 -19 -46 -33 vhcurveto
          41 -26 -45 24 -66 hhcurveto
          -147 -68 -96 -214 -159 65 -45 105 63 51 17 42 35 hvcurveto
          -48 27 47 -11 60 hhcurveto
          -34 callgsubr
          hvcurveto
          -97 callgsubr
          -349 -125 -103 callsubr
          196 191 -94 callgsubr
          endchar
        </CharString>
        <CharString name="ogonek">
          -139 -180 68 172 -20 hstem
          232 -105 rmoveto
          -3 -18 -31 -4 -15 hhcurveto
          -27 -14 6 28 30 23 64 33 44 hvcurveto
          -69 hlineto
          -35 -35 -32 -60 -58 vvcurveto
          -65 30 -22 76 24 31 5 5 20 vhcurveto
          endchar
        </CharString>
        <CharString name="ograve">
          -99 callsubr
          5 335 -85 callgsubr
        </CharString>
        <CharString name="one">
          0 75 625 -20 hstem
          385 hmoveto
          -51 callsubr
          -99 hlineto
          55 625 rlineto
          -95 hlineto
          -126 -50 -7 -81 136 51 -48 -545 rlineto
          -121 -36 callgsubr
        </CharString>
        <CharString name="onehalf">
          418 -79 -21 100 65 140 66 165 64 200 -64 callsubr
          712 -205 -81 callgsubr
          154 810 -67 callgsubr
        </CharString>
        <CharString name="onequarter">
          -12 callgsubr
          24 66 429 -64 callsubr
          704 -88 -71 callsubr
          -39 693 -67 callgsubr
        </CharString>
        <CharString name="onesuperior">
          -47 205 66 429 -20 hstem
          336 -82 callsubr
          endchar
        </CharString>
        <CharString name="ordfeminine">
          -62 -7 callgsubr
          90 497 rmoveto
          -1 -16 -1 -14 -14 vvcurveto
          -88 29 -44 72 48 29 19 27 19 vhcurveto
          -28 10 24 -13 33 hhcurveto
          15 hlineto
          4 53 rlineto
          -19 -10 10 18 hvcurveto
          5 vlineto
          24 278 rlineto
          8 -23 -45 9 -28 hhcurveto
          -113 -53 -62 -148 -14 hvcurveto
          115 -118 rmoveto
          -35 -12 16 51 138 34 65 66 15 11 -1 -1 9 hvcurveto
          -17 -194 rlineto
          -38 -3 -23 -36 -45 hhcurveto
          103 -379 -62 callsubr
          -251 -36 callgsubr
        </CharString>
        <CharString name="ordmasculine">
          -41 -7 callgsubr
          313 508 rmoveto
          -88 -8 -13 -41 -61 hhcurveto
          -48 -15 26 54 116 20 74 66 48 14 -33 -56 -16 -1 -17 -2 -19 hvcurveto
          75 50 rmoveto
          102 -45 47 -84 -115 -46 -73 -160 -119 49 -34 79 102 44 40 151 13 vhcurveto
          1 13 2 22 11 vvcurveto
          -54 -558 -62 callsubr
          -276 -36 callgsubr
        </CharString>
        <CharString name="oslash">
          53 -68 -21 82 70 374 70 82 -20 hstem
          -1 callgsubr
          74 -20 53 -39 31 vhcurveto
          48 -10 callgsubr
          -77 hlineto
          -36 -87 rlineto
          3 -14 -16 2 -16 -1 callsubr
          -64 -96 -215 -91 21 -53 38 -29 hvcurveto
          -47 -112 rlineto
          78 hlineto
          35 85 rlineto
          -2 14 15 -1 16 hhcurveto
          151 64 101 222 hvcurveto
          -299 -126 rmoveto
          17 1 18 2 20 vhcurveto
          142 12 28 50 80 hhcurveto
          8 8 -1 -1 7 hvcurveto
          -135 -322 rlineto
          -8 20 -3 25 32 vvcurveto
          209 55 -72 callsubr
          -8 -7 0 1 -7 hvcurveto
          135 322 rlineto
          6 -18 3 -24 -30 vvcurveto
          -20 -1 -23 -2 -26 vhcurveto
          endchar
        </CharString>
        <CharString name="otilde">
          -39 callsubr
          84 -25 callsubr
          -106 callsubr
          -208 349 -91 callsubr
        </CharString>
        <CharString name="p">
          42 -32 callgsubr
          370 65 -65 72 hstemhm
          hintmask 11010000
          -60 callgsubr
          -61 -40 -27 -36 -28 vhcurveto
          hintmask 11100000
          -2 56 rlineto
          -70 hlineto
          -58 -670 -43 callsubr
          -31 -21 1 2 -15 hvcurveto
          18 208 rlineto
          58 5 22 101 89 hhcurveto
          endchar
        </CharString>
        <CharString name="paragraph">
          53 -175 72 124 -21 374 70 192 71 -7 -20 hstemhm
          hintmask 11101000
          491 700 rmoveto
          -80 hlineto
          -66 -748 rlineto
          -35 -4 -22 -84 callgsubr
          28 -2 31 hhcurveto
          90 33 57 75 9 hvcurveto
          -92 487 rmoveto
          -101 hlineto
          -43 -22 30 37 hvcurveto
          hintmask 11110000
          93 29 32 84 20 25 -3 -3 27 vhcurveto
          hintmask 11101000
          6 70 rlineto
          hintmask 11110000
          0 -50 7 -54 -82 -81 -54 -139 -116 63 -24 67 vhcurveto
          24 hlineto
          -32 -374 rlineto
          82 hlineto
          endchar
        </CharString>
        <CharString name="parenleft">
          -2 callgsubr
          71 248 rmoveto
          -130 23 -131 62 -107 vhcurveto
          83 hlineto
          -57 113 -27 110 138 vvcurveto
          217 52 202 114 160 vhcurveto
          -83 hlineto
          -119 -147 -48 -212 -213 vvcurveto
          endchar
        </CharString>
        <CharString name="parenright">
          -2 callgsubr
          290 452 rmoveto
          129 -23 132 -63 107 vhcurveto
          -83 hlineto
          57 -113 27 -110 -138 vvcurveto
          -217 -52 -202 -114 -160 vhcurveto
          83 hlineto
          118 144 50 200 228 vvcurveto
          endchar
        </CharString>
        <CharString name="partialdiff">
          -8 callgsubr
          68 213 rmoveto
          -1 -14 -1 -14 -12 vvcurveto
          -137 73 -43 82 137 45 58 333 29 vhcurveto
          3 35 2 32 28 vvcurveto
          191 -69 37 -116 -31 -49 -10 -5 -17 vhcurveto
          -6 -71 rlineto
          6 26 38 10 43 hhcurveto
          63 33 -19 -129 -22 -1 -25 -2 -29 hvcurveto
          14 -20 -34 17 -49 hhcurveto
          -139 -27 -93 -138 -12 hvcurveto
          179 159 rmoveto
          50 35 -20 -7 11 hvcurveto
          -245 -22 -29 -35 -59 hhcurveto
          -59 -23 34 68 12 1 13 1 14 hvcurveto
          112 9 13 54 72 hhcurveto
          endchar
        </CharString>
        <CharString name="percent">
          399 -7 59 -31 -21 285 59 12 59 233 59 -7 -20 hstemhm
          hintmask 10111000
          323 496 rmoveto
          -93 callsubr
          69 4 rmoveto
          -98 callgsubr
          hintmask 01110100
          249 200 rmoveto
          -78 hlineto
          -306 -46 callsubr
          78 hlineto
          375 204 rmoveto
          hintmask 10111000
          -93 callsubr
          69 4 rmoveto
          -98 callgsubr
          endchar
        </CharString>
        <CharString name="period">
          -227 0 -22 callgsubr
          endchar
        </CharString>
        <CharString name="periodcentered">
          -227 260 100 hstem
          177 260 -42 callgsubr
          endchar
        </CharString>
        <CharString name="perthousand">
          721 -7 59 -31 -21 285 59 12 59 233 59 -7 -20 hstemhm
          hintmask 10111000
          323 496 rmoveto
          -93 callsubr
          hintmask 01110100
          318 204 rmoveto
          -78 hlineto
          -306 -46 callsubr
          78 hlineto
          375 204 rmoveto
          hintmask 10111000
          -93 callsubr
          322 hmoveto
          -93 callsubr
          -640 296 rmoveto
          -98 callgsubr
          387 -292 rmoveto
          -98 callgsubr
          322 hmoveto
          -98 callgsubr
          endchar
        </CharString>
        <CharString name="pi">
          97 0 70 -51 -21 429 73 hstemhm
          hintmask 10100000
          536 427 rmoveto
          -64 callgsubr
          -464 -43 callgsubr
          78 hlineto
          -36 -427 -4 callgsubr
          36 427 rlineto
          125 hlineto
          -27 -315 rlineto
          -1 -7 0 -7 -6 vvcurveto
          hintmask 01100000
          -73 40 -21 -52 callgsubr
          26 310 rlineto
          endchar
        </CharString>
        <CharString name="plus">
          93 139 -21 157 -50 callsubr
          -151 -79 callsubr
          151 hlineto
          -14 -157 -20 callsubr
          14 157 rlineto
          endchar
        </CharString>
        <CharString name="plusminus">
          93 0 75 200 -50 callsubr
          -150 -79 callsubr
          150 hlineto
          -12 -132 -20 callsubr
          12 132 rlineto
          126 -275 -77 callsubr
          endchar
        </CharString>
        <CharString name="product">
          107 0 70 -51 -21 627 75 hstemhm
          hintmask 10100000
          563 625 rmoveto
          -6 callsubr
          -474 -11 callsubr
          79 hlineto
          -54 -625 rlineto
          87 hlineto
          54 625 rlineto
          131 hlineto
          -45 -513 rlineto
          -6 -1 -5 -6 vvcurveto
          hintmask 01100000
          -71 42 -26 -52 callgsubr
          44 508 rlineto
          endchar
        </CharString>
        <CharString name="q">
          47 -32 callgsubr
          -6 callgsubr
          hstem
          -47 callsubr
          -20 -1 -19 -18 vvcurveto
          -118 39 -60 94 59 41 25 35 29 vhcurveto
          -19 -223 -4 callgsubr
          57 655 rlineto
          10 -31 -55 12 -53 hhcurveto
          -159 -66 -46 callgsubr
          -45 callgsubr
          -3 15 hvcurveto
          -20 -227 rlineto
          -59 -9 -32 -79 -79 hhcurveto
          endchar
        </CharString>
        <CharString name="question">
          -97 0 100 534 73 hstem
          194 -73 callsubr
          267 530 rmoveto
          1 10 1 19 8 vvcurveto
          108 -63 32 -102 -36 -51 -9 -6 -26 vhcurveto
          -6 -74 rlineto
          6 31 51 10 41 hhcurveto
          47 30 -17 -55 -74 -11 -9 -73 -79 hvcurveto
          -66 -71 -10 -121 -4 callgsubr
          7 92 61 64 75 78 8 25 6 63 rlinecurve
          endchar
        </CharString>
        <CharString name="questiondown">
          -97 -207 74 533 100 hstem
          189 -23 callsubr
          -8 -100 rlineto
          100 hlineto
          8 100 rlineto
          -268 -566 rmoveto
          -110 62 -31 101 38 49 9 7 28 vhcurveto
          -64 callgsubr
          -5 -33 -49 -10 -41 hhcurveto
          -47 -31 17 53 76 11 10 73 78 hvcurveto
          66 70 10 121 -82 callgsubr
          -7 -92 -61 -63 rlineto
          -75 -78 -15 -45 -51 vvcurveto
          endchar
        </CharString>
        <CharString name="quotedbl">
          -97 -45 callsubr
          189 157 -35 callsubr
          6 -13 callgsubr
          55 hlineto
          endchar
        </CharString>
        <CharString name="quotedblbase">
          -97 -136 -42 callsubr
          295 hmoveto
          -21 callgsubr
          -81 157 rmoveto
          -25 callgsubr
        </CharString>
        <CharString name="quotedblleft">
          -97 -44 callgsubr
          81 -157 -49 callsubr
          endchar
        </CharString>
        <CharString name="quotedblright">
          -97 474 -42 callsubr
          348 610 rmoveto
          8 90 rlineto
          -95 hlineto
          -8 -16 callsubr
          8 -38 callgsubr
          -8 -90 -44 -13 callgsubr
          65 hlineto
          endchar
        </CharString>
        <CharString name="quoteleft">
          -252 -44 callgsubr
          endchar
        </CharString>
        <CharString name="quoteright">
          -252 -62 callgsubr
          -44 -13 callgsubr
          65 hlineto
          endchar
        </CharString>
        <CharString name="quotesinglbase">
          -252 -136 -42 callsubr
          140 hmoveto
          -25 callgsubr
        </CharString>
        <CharString name="quotesingle">
          -252 -45 callsubr
          endchar
        </CharString>
        <CharString name="r">
          -119 21 -21 422 85 -7 -20 hstemhm
          hintmask 11000000
          346 501 rmoveto
          3 -14 -14 3 -24 hhcurveto
          -48 -35 -29 -40 -26 hvcurveto
          hintmask 10100000
          -2 62 -31 callsubr
          85 hlineto
          24 276 rlineto
          hintmask 11000000
          67 6 27 79 67 hhcurveto
          19 24 -4 -4 17 hvcurveto
          endchar
        </CharString>
        <CharString name="radical">
          98 21 -21 745 75 hstem
          625 745 -62 callsubr
          -177 hlineto
          -243 -759 -63 331 rlineto
          -89 hlineto
          85 -392 rlineto
          128 hlineto
          240 745 rlineto
          endchar
        </CharString>
        <CharString name="registered">
          343 -7 68 255 48 137 46 92 68 hstem
          735 350 -84 callsubr
          -128 85 rmoveto
          67 -26 45 -84 -46 -44 -3 0 vhcurveto
          -385 54 157 38 vlineto
          67 -13 callgsubr
          61 hlineto
          -75 165 rlineto
          38 16 17 39 56 vvcurveto
          -55 -4 rmoveto
          -60 -18 -7 -30 vhcurveto
          -43 135 hlineto
          0 12 2 31 39 9 -17 -53 vhcurveto
          endchar
        </CharString>
        <CharString name="ring">
          -197 543 54 98 52 hstem
          271 645 -75 callsubr
        </CharString>
        <CharString name="s">
          -55 -2 callsubr
          -90 callgsubr
          endchar
        </CharString>
        <CharString name="scaron">
          -55 -2 callsubr
          207 -20 -90 callgsubr
          -248 549 -68 callsubr
        </CharString>
        <CharString name="section">
          -7 71 572 71 hstem
          102 328 rmoveto
          -65 34 -41 94 -16 vhcurveto
          39 -6 19 -22 -34 vvcurveto
          -43 -35 -37 -49 -54 -26 9 9 -33 vhcurveto
          -5 callgsubr
          -5 20 34 -11 52 hhcurveto
          111 71 43 115 34 -12 34 -29 19 hvcurveto
          42 24 35 41 65 vvcurveto
          58 -33 53 -94 15 vhcurveto
          -40 7 -18 20 34 vvcurveto
          30 17 51 66 54 26 -9 -9 34 vhcurveto
          6 72 rlineto
          5 -20 -34 12 -52 hhcurveto
          -102 -79 -41 -117 -32 12 -38 25 -18 hvcurveto
          -45 -24 -29 -50 -59 vvcurveto
          220 36 rmoveto
          -39 -33 -46 -25 -11 vhcurveto
          -62 10 -14 22 35 vvcurveto
          42 23 45 31 11 vhcurveto
          65 -11 15 -23 -35 vvcurveto
          endchar
        </CharString>
        <CharString name="semicolon">
          -227 -119 -21 540 100 -31 callgsubr
          119 540 -42 callgsubr
          endchar
        </CharString>
        <CharString name="seven">
          21 -21 625 75 hstem
          407 603 rmoveto
          9 97 rlineto
          -305 -11 callsubr
          222 hlineto
          -221 -625 rlineto
          89 hlineto
          endchar
        </CharString>
        <CharString name="six">
          -8 callgsubr
          424 292 rmoveto
          95 -28 57 -114 -50 -36 -17 -14 -22 vhcurveto
          194 21 34 30 77 hhcurveto
          43 36 -10 -6 26 hvcurveto
          6 71 rlineto
          5 -17 -47 10 -31 hhcurveto
          -146 -66 -52 -275 -24 hvcurveto
          -5 -62 -3 -52 -44 vvcurveto
          -193 51 -36 94 150 51 109 190 vhcurveto
          -155 80 rmoveto
          54 15 -27 -61 -138 -29 -81 -80 -44 -25 18 117 37 2 47 5 61 hvcurveto
          7 14 37 20 51 hhcurveto
          endchar
        </CharString>
        <CharString name="slash">
          -132 -24 callgsubr
          380 810 rmoveto
          -79 hlineto
          -315 -920 rlineto
          78 hlineto
          endchar
        </CharString>
        <CharString name="space">
          -197 endchar
        </CharString>
        <CharString name="sterling">
          0 73 267 73 219 75 hstem
          254 476 rmoveto
          136 12 21 20 79 hhcurveto
          16 45 -6 -6 28 hvcurveto
          6 74 rlineto
          6 -31 -41 7 -23 hhcurveto
          -133 -48 -41 -197 -18 hvcurveto
          -5 -56 rlineto
          -70 hlineto
          -7 -73 -29 callgsubr
          -24 -267 rlineto
          -69 -43 callgsubr
          355 hlineto
          -64 callgsubr
          -199 hlineto
          24 267 rlineto
          128 -27 callgsubr
          -129 hlineto
          endchar
        </CharString>
        <CharString name="summation">
          -170 74 721 75 hstem
          400 -170 rmoveto
          7 74 rlineto
          -299 hlineto
          209 363 -131 358 rlineto
          272 hlineto
          -6 callsubr
          -360 hlineto
          -9 -95 126 -338 -198 -343 -9 -94 rlineto
          endchar
        </CharString>
        <CharString name="t">
          -136 -6 72 359 75 120 -20 hstem
          318 425 -62 callsubr
          -116 hlineto
          11 120 -82 callgsubr
          -11 -120 rlineto
          -65 -79 callsubr
          65 hlineto
          -25 -280 rlineto
          -1 -12 -2 -18 -9 vvcurveto
          -65 29 -47 76 36 38 7 4 13 vhcurveto
          6 70 rlineto
          -4 -15 -24 -5 -28 hhcurveto
          -37 -8 28 19 3 1 16 1 10 hvcurveto
          25 283 rlineto
          endchar
        </CharString>
        <CharString name="thorn">
          42 -32 callgsubr
          -6 callgsubr
          193 -20 hstem
          -60 callgsubr
          -55 -38 -22 -30 -27 vhcurveto
          22 245 -82 callgsubr
          -76 -870 -43 callsubr
          -30 -21 1 2 -16 hvcurveto
          21 232 rlineto
          58 5 30 77 78 hhcurveto
          endchar
        </CharString>
        <CharString name="three">
          -7 73 261 73 234 73 hstem
          381 229 rmoveto
          74 -22 61 -53 3 vhcurveto
          63 22 28 61 104 vvcurveto
          117 -59 36 -88 -51 -60 -15 -2 -11 vhcurveto
          -5 callgsubr
          6 30 51 11 44 hhcurveto
          49 17 -27 -68 -35 -7 -104 -90 hvcurveto
          -72 -43 callgsubr
          82 hlineto
          59 17 -32 -63 -103 -34 -63 -63 -44 -61 12 5 -23 hvcurveto
          -5 callgsubr
          -2 9 72 -15 49 hhcurveto
          125 63 72 164 hvcurveto
          endchar
        </CharString>
        <CharString name="threequarters">
          -12 callgsubr
          19 63 175 63 141 63 105 -20 hstem
          338 -91 callgsubr
          450 -224 -71 callsubr
          -43 693 -67 callgsubr
        </CharString>
        <CharString name="threesuperior">
          -47 200 63 175 63 141 63 hstem
          331 -91 callgsubr
          endchar
        </CharString>
        <CharString name="tilde">
          -107 591 -16 callgsubr
          hintmask 01000000
          76 594 -57 callgsubr
          hintmask 10000000
          -95 callgsubr
          hintmask 01000000
          -85 callsubr
        </CharString>
        <CharString name="trademark">
          283 215 -21 447 59 hstem
          681 194 rmoveto
          45 506 rlineto
          -113 hlineto
          -81 -237 -41 237 rlineto
          -400 hlineto
          -5 -59 rlineto
          116 hlineto
          -40 -447 rlineto
          68 hlineto
          40 447 rlineto
          100 hlineto
          -40 -447 rlineto
          65 hlineto
          40 450 54 -283 rlineto
          63 hlineto
          103 283 -40 -450 rlineto
          endchar
        </CharString>
        <CharString name="two">
          0 74 560 73 hstem
          412 552 rmoveto
          103 -52 52 -104 -53 -59 -14 -2 -11 vhcurveto
          -7 -74 rlineto
          7 32 50 10 42 hhcurveto
          57 20 -35 -51 -117 -28 -25 -67 -90 hvcurveto
          -170 -228 -7 -88 rlineto
          320 hlineto
          6 74 rlineto
          -229 hlineto
          157 211 rlineto
          73 98 30 44 125 vvcurveto
          endchar
        </CharString>
        <CharString name="twosuperior">
          -47 205 65 371 64 hstem
          319 205 -81 callgsubr
          endchar
        </CharString>
        <CharString name="u">
          -3 callgsubr
          hstemhm
          hintmask 10100000
          -93 callgsubr
          hintmask 01100000
          -89 callgsubr
          hintmask 10100000
          -88 callsubr
          endchar
        </CharString>
        <CharString name="uacute">
          -100 callsubr
          117 80 -90 callsubr
        </CharString>
        <CharString name="ucircumflex">
          -100 callsubr
          249 80 -92 callgsubr
        </CharString>
        <CharString name="udieresis">
          -3 callgsubr
          115 80 -102 callgsubr
          236 95 -101 callgsubr
        </CharString>
        <CharString name="ugrave">
          -100 callsubr
          169 80 -85 callgsubr
        </CharString>
        <CharString name="underscore">
          53 -170 75 hstem
          482 -170 -62 callsubr
          -503 -36 callgsubr
        </CharString>
        <CharString name="uni00A0">
          -197 endchar
        </CharString>
        <CharString name="uni00AD">
          -37 callsubr
        </CharString>
        <CharString name="uni02C9">
          -41 callsubr
        </CharString>
        <CharString name="uni03BC">
          -92 callsubr
        </CharString>
        <CharString name="uni2215">
          -44 callsubr
        </CharString>
        <CharString name="uni2219">
          -88 callgsubr
        </CharString>
        <CharString name="uni2224">
          -88 callgsubr
        </CharString>
        <CharString name="uni25AF">
          -63 callgsubr
        </CharString>
        <CharString name="v">
          5 -11 callgsubr
          460 -23 callsubr
          -89 hlineto
          -143 -431 -71 431 rlineto
          -89 hlineto
          92 -27 callsubr
          123 hlineto
          endchar
        </CharString>
        <CharString name="w">
          213 -11 callgsubr
          663 -23 callsubr
          -84 hlineto
          -119 -436 -53 346 -82 callgsubr
          -120 -346 -42 436 0 callgsubr
          57 -27 callsubr
          128 hlineto
          92 271 40 -271 rlineto
          131 hlineto
          endchar
        </CharString>
        <CharString name="x">
          7 -11 callgsubr
          419 hmoveto
          -126 262 156 238 rlineto
          -94 hlineto
          -102 -163 -70 163 rlineto
          -98 hlineto
          112 -242 -167 -258 rlineto
          95 hlineto
          116 183 79 -183 rlineto
          endchar
        </CharString>
        <CharString name="y">
          -13 callsubr
          -95 callsubr
          endchar
        </CharString>
        <CharString name="yacute">
          -13 callsubr
          235 -20 -95 callsubr
          50 624 -90 callsubr
        </CharString>
        <CharString name="ydieresis">
          -13 callsubr
          115 80 -95 callsubr
          148 639 -101 callgsubr
        </CharString>
        <CharString name="yen">
          21 -21 115 75 75 75 360 -20 hstem
          409 115 -62 callsubr
          -130 hlineto
          -6 callsubr
          130 hlineto
          -51 callsubr
          -127 hlineto
          200 360 rlineto
          -93 hlineto
          -145 -273 -98 273 rlineto
          -94 hlineto
          135 -360 rlineto
          -128 -79 callsubr
          130 -11 callsubr
          -130 -79 callsubr
          130 hlineto
          -10 -115 rlineto
          90 hlineto
          10 -10 callgsubr
          endchar
        </CharString>
        <CharString name="z">
          -54 0 74 352 74 -60 callsubr
          endchar
        </CharString>
        <CharString name="zcaron">
          -54 0 74 352 74 214 -20 -60 callsubr
          -23 640 -68 callsubr
        </CharString>
        <CharString name="zero">
          -12 callsubr
          357 505 rmoveto
          -39 -3 -50 -6 -63 vhcurveto
          -215 -18 -19 -72 -81 hhcurveto
          -57 -19 37 98 14 6 116 2 22 hvcurveto
          220 20 20 61 78 hhcurveto
          56 21 -31 -98 hvcurveto
          84 -14 rmoveto
          145 -36 71 -119 -158 -30 -53 callgsubr
          vhcurveto
          -4 -54 -3 -47 -1 -42 rrcurveto
          -149 37 -73 117 161 28 120 245 21 vhcurveto
          5 50 2 44 39 vvcurveto
          endchar
        </CharString>
      <CharString index="0">
        -43 12 32 -19 42 hhcurveto
        19 hlineto
        5 65 rlineto
        -26 -13 14 24 hvcurveto
        18 2 13 2 vvcurveto
        32 349 rlineto
        10 -31 -60 12 -37 -1 callsubr
        -71 -46 callgsubr
        147 -163 rmoveto
        -46 -17 32 66 180 46 92 93 24 17 -2 -2 13 hvcurveto
        -23 -259 rlineto
        -53 -5 -33 -54 -69 hhcurveto
        return
      </CharString>
      <CharString index="1">
        hstem
        426 -58 callsubr
        -126 -75 -87 -241 -158 67 -28 95 -34 callgsubr
        vhcurveto
        -97 callgsubr
        -153 66 -94 callgsubr
        return
      </CharString>
      <CharString index="2">
        -17 callsubr
        -96 callsubr
        hintmask 01110000
        -107 callgsubr
        return
      </CharString>
      <CharString index="3">
        -72 callgsubr
        -71 -30 46 126 13 5 85 1 17 hvcurveto
        220 20 36 61 89 hhcurveto
        71 31 -38 -123 -34 -3 -39 -4 -47 hvcurveto
        return
      </CharString>
      <CharString index="4">
        rmoveto
        -87 hlineto
        -47 -534 rlineto
        -70 -6 -43 -30 -60 hhcurveto
        -56 -36 26 60 5 1 14 1 16 hvcurveto
        45 513 0 callgsubr
        -44 -505 rlineto
        -1 -9 -1 -18 -10 vvcurveto
        -115 73 -50 99 120 72 57 135 12 vhcurveto
        endchar
      </CharString>
      <CharString index="5">
        -17 callsubr
        -93 callgsubr
        hintmask 01110000
        -89 callgsubr
        hintmask 10110000
        -88 callsubr
        return
      </CharString>
      <CharString index="6">
        -105 callsubr
        endchar
      </CharString>
      <CharString index="7">
        -55 callsubr
        208 -20 -106 callgsubr
        return
      </CharString>
      <CharString index="8">
        7 80 -82 callgsubr
        -7 -80 rlineto
        return
      </CharString>
      <CharString index="9">
        2 21 1 20 18 vvcurveto
        91 -27 57 -95 -120 -24 -82 -125 -11 vhcurveto
        -2 -21 -1 -20 -19 vvcurveto
        -93 27 -62 94 120 25 90 125 11 vhcurveto
        return
      </CharString>
      <CharString index="10">
        -77 callgsubr
        -37 15 92 hvcurveto
        36 vlineto
        -3 28 20 -1 26 hhcurveto
        118 77 48 118 hvcurveto
        return
      </CharString>
      <CharString index="11">
        -64 callgsubr
        -70 hlineto
        48 554 rlineto
        70 -27 callgsubr
        -227 hlineto
        -7 -73 -29 callgsubr
        -48 -554 rlineto
        -70 -43 callgsubr
        return
      </CharString>
      <CharString index="12">
        43 17 -39 50 hhcurveto
        34 27 8 25 28 hvcurveto
        -64 callgsubr
        -23 -28 -20 -13 -35 hhcurveto
        return
      </CharString>
      <CharString index="13">
        rmoveto
        61 12 -32 -38 -66 -37 -26 -93 -19 -15 1 2 -20 hvcurveto
        121 13 39 38 59 hhcurveto
        return
      </CharString>
      <CharString index="14">
        108 -23 callsubr
        -27 -320 rlineto
        -1 -18 -1 -16 -16 vvcurveto
        -86 27 -51 101 58 37 23 37 27 vhcurveto
        return
      </CharString>
      <CharString index="15">
        rmoveto
        -101 -10 callsubr
        -88 hlineto
        -124 -135 rlineto
        96 hlineto
        68 84 52 -84 rlineto
        endchar
      </CharString>
      <CharString index="16">
        341 rmoveto
        1 7 1 16 6 vvcurveto
        54 -20 40 -37 8 vhcurveto
        45 15 23 32 75 vvcurveto
        89 -53 22 -65 -38 -46 -9 -2 -8 vhcurveto
        -5 -64 rlineto
        5 22 34 7 33 hhcurveto
        34 18 -8 -39 -24 0 -70 -72 hvcurveto
        -50 hlineto
        -5 -63 rlineto
        57 hlineto
        45 13 -23 -44 -71 -25 -37 -46 -33 -43 8 4 -17 hvcurveto
        -6 -64 rlineto
        -2 7 54 -9 37 hhcurveto
        83 52 34 107 10 hvcurveto
        return
      </CharString>
      <CharString index="17">
        hstem
        355 165 rmoveto
        67 -35 46 -93 19 vhcurveto
        -41 8 -18 17 32 vvcurveto
        39 15 42 65 54 26 -8 -8 33 vhcurveto
        -64 callgsubr
        5 -19 -40 10 -49 hhcurveto
        -112 -67 -44 -120 -60 37 -45 92 -21 hvcurveto
        43 -10 14 -16 -36 vvcurveto
        -37 -15 -53 -65 -47 -55 11 5 -23 vhcurveto
        -5 callgsubr
        -6 22 40 -9 57 hhcurveto
        127 55 54 118 hvcurveto
        return
      </CharString>
      <CharString index="18">
        2 -53 -29 callgsubr
        -76 callsubr
        -24 -289 rlineto
        return
      </CharString>
      <CharString index="19">
        -167 291 -21 110 -20 hstem
        213 270 rmoveto
        10 110 -24 callsubr
        -10 -110 rlineto
        endchar
      </CharString>
      <CharString index="20">
        rlineto
        89 hlineto
        54 177 rlineto
        197 hlineto
        23 -177 rlineto
        return
      </CharString>
      <CharString index="21">
        rlineto
        -35 -3 -21 -84 callgsubr
        return
      </CharString>
      <CharString index="22">
        rmoveto
        -92 -10 callsubr
        -109 hlineto
        125 -135 rlineto
        endchar
      </CharString>
      <CharString index="23">
        -20 -33 hhcurveto
        -16 -35 2 2 -21 hvcurveto
        -6 -71 rlineto
        -3 26 return
      </CharString>
      <CharString index="24">
        -7 -31 -36 -10 -50 hhcurveto
        -42 -28 15 95 18 1 20 2 24 hvcurveto
        148 13 27 44 58 hhcurveto
        49 32 -7 -9 34 hvcurveto
        6 75 return
      </CharString>
      <CharString index="25">
        rlineto
        -85 hlineto
        return
      </CharString>
      <CharString index="26">
        rmoveto
        6 65 rlineto
        -164 hlineto
        112 140 rlineto
        54 73 19 33 72 vvcurveto
        72 -41 45 -83 -40 -44 -10 -1 -9 vhcurveto
        -5 -65 rlineto
        5 24 37 7 32 hhcurveto
        41 14 -17 -31 -67 -14 -23 -53 -70 hvcurveto
        -125 -157 -7 -71 rlineto
        return
      </CharString>
      <CharString index="27">
        -6 -26 -50 -9 -41 hhcurveto
        -57 -34 22 136 11 6 101 1 16 hvcurveto
        242 22 38 36 72 hhcurveto
        36 47 -7 -8 32 hvcurveto
        7 74 rlineto
        5 -15 -56 11 -27 hhcurveto
        -154 -64 -35 callgsubr
        return
      </CharString>
      <CharString index="28">
        rmoveto
        -93 hlineto
        -158 -291 -106 291 rlineto
        -94 hlineto
        146 -375 -28 -325 rlineto
        90 hlineto
        28 325 rlineto
        return
      </CharString>
      <CharString index="29">
        hstem
        155 hmoveto
        -76 callsubr
        -43 -500 rlineto
        return
      </CharString>
      <CharString index="30">
        7 72 rlineto
        -6 -30 -41 -11 -65 hhcurveto
        -37 return
      </CharString>
      <CharString index="31">
        hmoveto
        -69 callsubr
        return
      </CharString>
      <CharString index="32">
        155 hmoveto
        25 296 rlineto
        62 5 32 -86 callsubr
        -61 -40 -25 -40 -29 vhcurveto
        return
      </CharString>
      <CharString index="33">
        -212 21 -18 callgsubr
        -78 callgsubr
        return
      </CharString>
      <CharString index="34">
        rmoveto
        -165 hlineto
        114 382 rlineto
        return
      </CharString>
      <CharString index="35">
        rmoveto
        -215 -18 -37 -72 -90 hhcurveto
        return
      </CharString>
      <CharString index="36">
        -171 -48 -53 callgsubr
        return
      </CharString>
      <CharString index="37">
        346 252 -101 callsubr
        return
      </CharString>
      <CharString index="38">
        rlineto
        216 hlineto
        -64 callgsubr
        -216 hlineto
        return
      </CharString>
      <CharString index="39">
        rmoveto
        -25 -2 -7 -24 -33 hhcurveto
        -26 -7 21 21 26 9 30 32 27 7 -18 -22 hvcurveto
        endchar
      </CharString>
      <CharString index="40">
        rmoveto
        -80 hlineto
        -398 -910 -20 callsubr
        endchar
      </CharString>
      <CharString index="41">
        41 -7 72 -65 65 -6 callgsubr
        return
      </CharString>
      <CharString index="42">
        -61 -46 callsubr
        return
      </CharString>
      <CharString index="43">
        6 73 rlineto
        return
      </CharString>
      <CharString index="44">
        45 0 72 556 72 hstem
        55 hmoveto
        372 hlineto
        61 -23 callgsubr
        -372 hlineto
        20 -628 rmoveto
        48 556 rlineto
        222 hlineto
        -48 -556 rlineto
        endchar
      </CharString>
      <CharString index="45">
        474 -42 callsubr
        193 -48 callgsubr
        return
      </CharString>
      <CharString index="46">
        -21 500 -20 return
      </CharString>
      <CharString index="47">
        140 -170 rmoveto
        14 167 rlineto
        -2 18 19 -2 19 hhcurveto
        164 55 75 204 18 hvcurveto
        2 18 1 28 16 vvcurveto
        108 -36 65 -100 return
      </CharString>
      <CharString index="48">
        75 rmoveto
        -59 callsubr
        4 2 17 1 13 hvcurveto
        return
      </CharString>
      <CharString index="49">
        452 hmoveto
        61 -23 callgsubr
        -81 hlineto
        -55 -626 -99 626 rlineto
        -142 -66 callsubr
        81 hlineto
        54 626 99 -626 rlineto
        return
      </CharString>
      <CharString index="50">
        rmoveto
        19 23 26 -9 callgsubr
        return
      </CharString>
      <CharString index="51">
        rmoveto
        8 88 rlineto
        -323 hlineto
        -7 -74 rlineto
        234 hlineto
        -304 -538 -7 -88 rlineto
        336 hlineto
        6 74 rlineto
        -246 hlineto
        endchar
      </CharString>
      <CharString index="52">
        107 207 -71 207 -5 callsubr
        44 -207 -82 -207 rlineto
        return
      </CharString>
      <CharString index="53">
        11 0 73 252 -28 callsubr
        return
      </CharString>
      <CharString index="54">
        -114 -235 -20 return
      </CharString>
      <CharString index="55">
        36 26 21 4 3 14 vhcurveto
        6 70 rlineto
        hintmask 10100000
        -59 callsubr
        hvcurveto
        4 1 5 5 vvcurveto
        return
      </CharString>
      <CharString index="56">
        100 rlineto
        -100 hlineto
        return
      </CharString>
      <CharString index="57">
        32 -9 callgsubr
        hintmask 10100000
        56 29 -39 56 hhcurveto
        37 36 13 20 32 hvcurveto
        7 78 rlineto
        -19 -30 -31 -17 -35 hhcurveto
        return
      </CharString>
      <CharString index="58">
        rmoveto
        4 1 4 4 vvcurveto
        53 -34 37 -54 -65 -38 -49 -64 return
      </CharString>
      <CharString index="59">
        610 -35 callsubr
        return
      </CharString>
      <CharString index="60">
        21 -61 callgsubr
        return
      </CharString>
      <CharString index="61">
        -82 -197 -18 hvcurveto
        return
      </CharString>
      <CharString index="62">
        152 -163 rmoveto
        -48 -19 35 70 14 1 17 1 17 hvcurveto
        139 13 31 78 95 hhcurveto
        30 21 -2 return
      </CharString>
      <CharString index="63">
        473 -42 callsubr
        62 542 -49 callsubr
        return
      </CharString>
      <CharString index="64">
        hlineto
        -6 -73 rlineto
        return
      </CharString>
      <CharString index="65">
        rmoveto
        9 -51 callgsubr
        -9 -100 rlineto
        return
      </CharString>
      <CharString index="66">
        735 -105 callsubr
        return
      </CharString>
      <CharString index="67">
        -140 0 73 554 73 return
      </CharString>
      <CharString index="68">
        -212 -47 callgsubr
        return
      </CharString>
      <CharString index="69">
        90 rlineto
        -95 hlineto
        return
      </CharString>
      <CharString index="70">
        93 275 75 hstem
        479 275 -77 callsubr
        endchar
      </CharString>
      <CharString index="71">
        -79 callsubr
        endchar
      </CharString>
      <CharString index="72">
        -51 -295 -26 hvcurveto
        -4 -47 -2 -41 -36 vvcurveto
        return
      </CharString>
      <CharString index="73">
        36 57 8 9 32 return
      </CharString>
      <CharString index="74">
        275 -62 callsubr
        return
      </CharString>
      <CharString index="75">
        -149 -21 163 72 return
      </CharString>
      <CharString index="76">
        -14 callgsubr
        -53 -140 rlineto
        68 hlineto
        return
      </CharString>
      <CharString index="77">
        rlineto
        -87 -66 callsubr
        return
      </CharString>
      <CharString index="78">
        rlineto
        70 hlineto
        return
      </CharString>
      <CharString index="79">
        -52 -36 39 -54 hhcurveto
        -29 -27 -5 -28 return
      </CharString>
      <CharString index="80">
        hlineto
        -36 callsubr
        return
      </CharString>
      <CharString index="81">
        0 76 624 -20 hstem
        385 hmoveto
        6 76 rlineto
        -223 hlineto
        return
      </CharString>
      <CharString index="82">
        -21 callgsubr
        endchar
      </CharString>
      <CharString index="83">
        -89 -21 920 -20 hstem
        return
      </CharString>
      <CharString index="84">
        700 rlineto
        return
      </CharString>
      <CharString index="85">
        100 -14 callgsubr
        rlineto
        return
      </CharString>
      <CharString index="86">
        7 -38 callgsubr
        -7 -90 -44 -13 callgsubr
        65 hlineto
        return
      </CharString>
      <CharString index="87">
        rmoveto
        -219 -19 -48 -69 -62 hhcurveto
        -42 -53 4 0 hvcurveto
        return
      </CharString>
      <CharString index="88">
        rlineto
        -80 hlineto
        return
      </CharString>
      <CharString index="89">
        -61 callgsubr
        235 -20 return
      </CharString>
      <CharString index="90">
        21 -21 435 72 -7 -20 return
      </CharString>
      <CharString index="91">
        70 -31 70 hstemhm
        return
      </CharString>
      <CharString index="92">
        -20 hstem
        479 280 rmoveto
        9 105 -364 return
      </CharString>
      <CharString index="93">
        hstem
        155 -76 callgsubr
        return
      </CharString>
      <CharString index="94">
        -157 rlineto
        return
      </CharString>
      <CharString index="95">
        418 -79 -21 121 -21 117 64 return
      </CharString>
      <CharString index="96">
        -47 callgsubr
        hstem
        return
      </CharString>
      <CharString index="97">
        115 rlineto
        return
      </CharString>
      <CharString index="98">
        17 35 hhcurveto
        return
      </CharString>
      <CharString index="99">
        -7 72 307 72 193 70 hstem
        return
      </CharString>
      <CharString index="100">
        0 75 246 58 270 58 hstem
        return
      </CharString>
      <CharString index="101">
        370 72 return
      </CharString>
      <CharString index="102">
        -7 -73 rlineto
        return
      </CharString>
      <CharString index="103">
        rlineto
        85 hlineto
        return
      </CharString>
      <CharString index="104">
        34 -7 72 -44 -61 callgsubr
        return
      </CharString>
      <CharString index="105">
        -137 -99 -21 940 -20 hstem
        return
      </CharString>
      <CharString index="106">
        459 316 rmoveto
        return
      </CharString>
      <CharString index="107">
        rlineto
        -87 hlineto
        return
      </CharString>
</ttFont>
